<svg width="375" height="359" viewBox="0 0 375 359" fill="none" xmlns="http://www.w3.org/2000/svg">
<path opacity="0.5" fill-rule="evenodd" clip-rule="evenodd" d="M151.349 -152.442L543 -148V327.727L151.349 209.217L151.349 -152.442Z" fill="url(#paint0_linear_0_9)"/>
<mask id="mask0_0_9" style="mask-type:luminance" maskUnits="userSpaceOnUse" x="151" y="-153" width="392" height="481">
<path fill-rule="evenodd" clip-rule="evenodd" d="M151.349 -152.442L543 -148V327.727L151.349 209.217L151.349 -152.442Z" fill="white"/>
</mask>
<g mask="url(#mask0_0_9)">
<path opacity="0.184386" fill-rule="evenodd" clip-rule="evenodd" d="M206 -84L391.931 -47.7479V324.361L207.318 259.373L206 -84Z" fill="url(#paint1_linear_0_9)"/>
<path fill-rule="evenodd" clip-rule="evenodd" d="M217.861 -74.7645L376.793 -49.5125V313.361L219.179 258.053L217.861 -74.7645Z" fill="url(#paint2_linear_0_9)"/>
<path fill-rule="evenodd" clip-rule="evenodd" d="M245.272 -17.5705L245.272 46.0472L347.343 68.4263V5.02885L245.272 -17.5705Z" fill="url(#paint3_linear_0_9)"/>
<path fill-rule="evenodd" clip-rule="evenodd" d="M235.225 75.5414L238.61 76.3198C240.946 76.8573 242.841 79.7527 242.841 82.7869V110.257C242.841 113.291 240.946 115.315 238.61 114.778L235.225 113.999C232.888 113.462 230.993 110.566 230.993 107.532V80.0623C230.993 77.028 232.888 75.004 235.225 75.5414Z" fill="#9EA4B8"/>
<path fill-rule="evenodd" clip-rule="evenodd" d="M238.364 101.348C238.205 99.8283 237.135 98.6948 235.976 98.8166C234.816 98.9385 234.006 100.27 234.166 101.79C234.243 102.527 234.535 103.174 234.947 103.63V107.644C234.947 108.116 235.369 108.567 235.888 108.65L236.642 108.772C237.161 108.855 237.583 108.54 237.583 108.068V103.826C238.149 103.282 238.47 102.357 238.364 101.348Z" fill="#686B89"/>
<path fill-rule="evenodd" clip-rule="evenodd" d="M255.691 -15.8223L255.691 38.7829L347.468 58.4008V-0.50216L255.691 -15.8223Z" fill="url(#paint4_linear_0_9)"/>
<mask id="mask1_0_9" style="mask-type:luminance" maskUnits="userSpaceOnUse" x="255" y="-16" width="93" height="75">
<path fill-rule="evenodd" clip-rule="evenodd" d="M255.691 -15.8223L255.691 38.7829L347.468 58.4008V-0.50216L255.691 -15.8223Z" fill="white"/>
</mask>
<g mask="url(#mask1_0_9)">
<path opacity="0.2" fill-rule="evenodd" clip-rule="evenodd" d="M280.883 45.0154L319.382 -3.38951L350.329 -3.38951V59.8084L280.883 45.0154Z" fill="white"/>
</g>
</g>
<path fill-rule="evenodd" clip-rule="evenodd" d="M-127 -158H152V209.302L-93.1876 277.5L-127 -158Z" fill="url(#paint5_linear_0_9)"/>
<path fill-rule="evenodd" clip-rule="evenodd" d="M260.655 85L346 105.767V136L260.655 113.711V85Z" fill="#BDC3D2"/>
<circle opacity="0.402004" cx="264.5" cy="90.5" r="1.5" fill="#686B89"/>
<circle opacity="0.402004" cx="341.5" cy="109.5" r="1.5" fill="#686B89"/>
<circle opacity="0.402004" cx="264.5" cy="110.5" r="1.5" fill="#686B89"/>
<circle opacity="0.402004" cx="341.5" cy="130.5" r="1.5" fill="#686B89"/>
<g style="mix-blend-mode:soft-light">
<path fill-rule="evenodd" clip-rule="evenodd" d="M276.312 96.0656C277.067 96.2559 277.717 96.5066 278.262 96.8178C278.808 97.129 279.268 97.4707 279.641 97.8429C280.015 98.215 280.316 98.6051 280.542 99.013C280.769 99.4209 280.942 99.8206 281.062 100.212C281.182 100.604 281.261 100.971 281.299 101.314C281.336 101.657 281.355 101.95 281.355 102.193C281.355 102.297 281.347 102.422 281.329 102.567C281.312 102.712 281.252 102.841 281.149 102.954C281.046 103.067 280.883 103.144 280.66 103.185C280.437 103.226 280.12 103.195 279.708 103.091C279.571 103.056 279.4 103.004 279.194 102.935C278.988 102.866 278.789 102.77 278.597 102.649C278.405 102.528 278.24 102.382 278.103 102.212C277.966 102.042 277.897 101.835 277.897 101.592C277.897 101.217 277.875 100.874 277.83 100.564C277.785 100.254 277.705 99.9805 277.588 99.7427C277.472 99.5049 277.31 99.3045 277.104 99.1414C276.899 98.9784 276.634 98.8562 276.312 98.7749C275.976 98.6901 275.717 98.696 275.535 98.7926C275.353 98.8892 275.221 99.0104 275.139 99.1564C275.042 99.3337 274.988 99.5456 274.974 99.7922V106.399C274.988 106.708 275.042 106.989 275.139 107.243C275.221 107.465 275.353 107.682 275.535 107.895C275.717 108.107 275.976 108.256 276.312 108.341C276.634 108.422 276.899 108.421 277.104 108.337C277.31 108.254 277.472 108.112 277.588 107.912C277.705 107.713 277.785 107.469 277.83 107.181C277.875 106.894 277.897 106.587 277.897 106.26C277.897 106.156 277.914 106.053 277.948 105.95C277.983 105.848 278.062 105.765 278.185 105.703C278.309 105.64 278.49 105.608 278.731 105.606C278.971 105.604 279.297 105.655 279.708 105.758C280.12 105.862 280.437 105.989 280.66 106.139C280.883 106.289 281.046 106.438 281.149 106.585C281.252 106.733 281.312 106.866 281.329 106.985C281.347 107.104 281.355 107.181 281.355 107.216C281.355 107.98 281.228 108.63 280.974 109.167C280.72 109.704 280.362 110.123 279.899 110.423C279.436 110.723 278.883 110.901 278.242 110.958C277.6 111.015 276.895 110.947 276.127 110.753C276.003 110.722 275.802 110.661 275.525 110.57C275.247 110.479 274.936 110.346 274.593 110.169C274.25 109.992 273.897 109.767 273.533 109.495C273.169 109.223 272.838 108.888 272.54 108.489C272.241 108.091 271.996 107.626 271.804 107.095C271.612 106.564 271.516 105.951 271.516 105.256V99.4414C271.516 98.8717 271.584 98.3854 271.721 97.9823C271.859 97.5792 272.039 97.2443 272.262 96.9775C272.485 96.7107 272.74 96.5042 273.029 96.358C273.317 96.2118 273.612 96.1039 273.914 96.0341C274.614 95.8771 275.413 95.8876 276.312 96.0656ZM283.846 100.445C283.846 100.146 283.86 99.8581 283.887 99.5802C283.915 99.3022 283.981 99.0638 284.088 98.8649C284.194 98.6659 284.35 98.5229 284.556 98.4358C284.762 98.3488 285.047 98.3511 285.41 98.4428C285.802 98.5414 286.107 98.6879 286.326 98.8822C286.546 99.0765 286.707 99.2995 286.81 99.5512C286.913 99.8029 286.977 100.074 287.001 100.365C287.025 100.656 287.037 100.951 287.037 101.25V110.378L289.054 110.886C289.335 110.957 289.613 111.041 289.888 111.138C290.162 111.235 290.407 111.363 290.624 111.522C290.84 111.681 291.013 111.877 291.143 112.111C291.274 112.346 291.339 112.637 291.339 112.984C291.339 113.338 291.274 113.601 291.143 113.773C291.013 113.945 290.84 114.056 290.624 114.106C290.407 114.156 290.162 114.16 289.888 114.119C289.613 114.077 289.335 114.021 289.054 113.95L286.131 113.213C285.767 113.121 285.445 113.026 285.163 112.927C284.882 112.829 284.644 112.703 284.448 112.549C284.253 112.396 284.103 112.203 284 111.973C283.897 111.742 283.846 111.449 283.846 111.095V100.445ZM293.047 104.495C293.047 103.828 293.143 103.284 293.336 102.864C293.528 102.443 293.773 102.114 294.071 101.877C294.37 101.639 294.699 101.478 295.06 101.391C295.42 101.305 295.77 101.259 296.109 101.255C296.449 101.25 296.756 101.272 297.031 101.32C297.305 101.369 297.507 101.409 297.638 101.442L297.988 101.53C298.118 101.563 298.321 101.625 298.595 101.715C298.869 101.805 299.175 101.937 299.511 102.112C299.847 102.287 300.195 102.509 300.556 102.777C300.916 103.045 301.242 103.372 301.533 103.758C301.825 104.144 302.065 104.596 302.254 105.112C302.443 105.629 302.537 106.22 302.537 106.887V113.119C302.537 113.806 302.443 114.366 302.254 114.798C302.065 115.23 301.825 115.569 301.533 115.815C301.242 116.061 300.916 116.23 300.556 116.324C300.195 116.417 299.847 116.466 299.511 116.472C299.175 116.477 298.869 116.456 298.595 116.408C298.321 116.359 298.118 116.319 297.988 116.286L297.638 116.198C297.507 116.165 297.305 116.103 297.031 116.013C296.756 115.923 296.449 115.79 296.109 115.614C295.77 115.438 295.42 115.213 295.06 114.938C294.699 114.663 294.37 114.328 294.071 113.933C293.773 113.539 293.528 113.077 293.336 112.549C293.143 112.022 293.047 111.414 293.047 110.726V104.495ZM296.464 111.984C296.478 112.244 296.537 112.485 296.639 112.705C296.729 112.901 296.864 113.092 297.046 113.276C297.228 113.461 297.487 113.596 297.823 113.681C298.152 113.764 298.406 113.758 298.585 113.664C298.763 113.57 298.897 113.448 298.986 113.297C299.082 113.126 299.141 112.915 299.161 112.663V105.869C299.141 105.614 299.082 105.374 298.986 105.148C298.897 104.959 298.763 104.77 298.585 104.583C298.406 104.396 298.152 104.26 297.823 104.177C297.487 104.093 297.228 104.098 297.046 104.195C296.864 104.292 296.729 104.412 296.639 104.556C296.537 104.732 296.478 104.943 296.464 105.189V111.984ZM307.683 107.726C307.69 108.02 307.774 108.303 307.935 108.576C308.097 108.85 308.309 109.124 308.574 109.399C308.838 109.674 309.138 109.953 309.474 110.236C309.81 110.518 310.155 110.814 310.508 111.122C310.862 111.43 311.207 111.754 311.543 112.096C311.879 112.438 312.181 112.806 312.449 113.2C312.716 113.594 312.932 114.017 313.097 114.468C313.262 114.919 313.351 115.407 313.365 115.932V116.015C313.365 116.585 313.296 117.064 313.159 117.453C313.022 117.843 312.84 118.161 312.613 118.41C312.387 118.659 312.123 118.844 311.821 118.966C311.519 119.088 311.202 119.166 310.869 119.2C310.536 119.234 310.2 119.233 309.86 119.196C309.52 119.159 309.2 119.105 308.898 119.036L308.795 119.01C308.212 118.863 307.7 118.675 307.261 118.447C306.822 118.218 306.445 117.965 306.129 117.687C305.813 117.409 305.551 117.116 305.342 116.806C305.132 116.496 304.966 116.188 304.843 115.883C304.719 115.577 304.63 115.282 304.575 114.997C304.52 114.713 304.493 114.452 304.493 114.216C304.493 113.973 304.534 113.771 304.616 113.612C304.698 113.452 304.806 113.331 304.94 113.25C305.074 113.169 305.228 113.123 305.403 113.112C305.578 113.1 305.762 113.119 305.954 113.167C306.132 113.212 306.316 113.286 306.505 113.39C306.693 113.493 306.865 113.621 307.019 113.775C307.174 113.928 307.301 114.106 307.4 114.308C307.5 114.51 307.553 114.731 307.56 114.968C307.573 115.493 307.69 115.878 307.91 116.125C308.129 116.371 308.445 116.546 308.857 116.65C309.062 116.695 309.253 116.717 309.428 116.716C309.603 116.715 309.752 116.673 309.876 116.589C309.999 116.506 310.097 116.377 310.169 116.205C310.241 116.032 310.277 115.799 310.277 115.508C310.277 115.146 310.196 114.8 310.035 114.467C309.874 114.135 309.663 113.811 309.402 113.495C309.141 113.179 308.843 112.866 308.507 112.555C308.17 112.245 307.827 111.932 307.477 111.618C307.127 111.304 306.786 110.982 306.453 110.652C306.12 110.321 305.82 109.976 305.553 109.617C305.285 109.258 305.071 108.881 304.909 108.486C304.748 108.091 304.664 107.667 304.657 107.213V107.047C304.664 106.305 304.762 105.711 304.951 105.266C305.139 104.82 305.417 104.498 305.784 104.298C306.151 104.099 306.603 104.006 307.138 104.02C307.673 104.033 308.287 104.127 308.98 104.302L309.248 104.369C309.879 104.528 310.414 104.733 310.853 104.982C311.292 105.232 311.658 105.501 311.949 105.79C312.241 106.079 312.471 106.38 312.639 106.693C312.807 107.007 312.932 107.306 313.015 107.591C313.097 107.875 313.148 108.135 313.169 108.369C313.19 108.604 313.2 108.79 313.2 108.929C313.2 109.138 313.161 109.317 313.082 109.467C313.003 109.618 312.896 109.735 312.763 109.819C312.629 109.904 312.471 109.956 312.289 109.976C312.107 109.996 311.91 109.98 311.697 109.926C311.533 109.885 311.368 109.81 311.203 109.702C311.039 109.595 310.891 109.473 310.761 109.336C310.63 109.199 310.524 109.052 310.442 108.896C310.359 108.739 310.318 108.592 310.318 108.453C310.318 107.883 310.217 107.462 310.014 107.188C309.812 106.915 309.515 106.729 309.124 106.631C308.939 106.584 308.759 106.549 308.584 106.526C308.409 106.502 308.254 106.521 308.121 106.581C307.987 106.641 307.88 106.758 307.802 106.933C307.723 107.107 307.683 107.372 307.683 107.726ZM321.043 107.426C321.317 107.495 321.595 107.576 321.876 107.668C322.158 107.759 322.412 107.883 322.638 108.037C322.865 108.191 323.05 108.386 323.194 108.62C323.338 108.854 323.41 109.148 323.41 109.503C323.41 109.857 323.338 110.115 323.194 110.277C323.05 110.438 322.865 110.539 322.638 110.579C322.412 110.62 322.158 110.615 321.876 110.565C321.595 110.515 321.317 110.455 321.043 110.386L318.593 109.768V112.602L319.89 112.929C320.165 112.999 320.441 113.077 320.719 113.164C320.996 113.252 321.243 113.37 321.46 113.518C321.676 113.666 321.852 113.853 321.99 114.079C322.127 114.304 322.196 114.587 322.196 114.928C322.196 115.275 322.127 115.525 321.99 115.678C321.852 115.831 321.676 115.927 321.46 115.967C321.243 116.006 320.996 115.999 320.719 115.947C320.441 115.894 320.165 115.833 319.89 115.764L318.593 115.437V118.438L321.043 119.055C321.317 119.125 321.595 119.205 321.876 119.297C322.158 119.389 322.412 119.51 322.638 119.661C322.865 119.812 323.05 120.004 323.194 120.239C323.338 120.473 323.41 120.764 323.41 121.111C323.41 121.472 323.336 121.735 323.189 121.899C323.041 122.064 322.854 122.166 322.628 122.206C322.401 122.246 322.148 122.241 321.866 122.191C321.585 122.141 321.31 122.082 321.043 122.015L317.008 120.998C316.624 120.901 316.327 120.757 316.118 120.565C315.909 120.373 315.756 120.152 315.66 119.902C315.564 119.652 315.507 119.383 315.49 119.094C315.473 118.804 315.464 118.51 315.464 118.212V108.417C315.464 108.118 315.473 107.828 315.49 107.548C315.507 107.267 315.564 107.026 315.66 106.825C315.756 106.623 315.909 106.479 316.118 106.393C316.327 106.307 316.624 106.312 317.008 106.409L321.043 107.426ZM330.1 109.71C330.725 109.867 331.306 110.094 331.845 110.389C332.383 110.685 332.853 111.041 333.255 111.459C333.656 111.876 333.972 112.35 334.202 112.88C334.432 113.41 334.546 113.992 334.546 114.624V121.084C334.546 121.626 334.488 122.089 334.371 122.473C334.255 122.857 334.102 123.176 333.913 123.431C333.725 123.686 333.51 123.889 333.27 124.04C333.03 124.191 332.786 124.302 332.539 124.372C331.949 124.542 331.28 124.554 330.532 124.407L327.115 123.546C326.724 123.447 326.422 123.303 326.21 123.114C325.997 122.925 325.842 122.706 325.746 122.456C325.65 122.206 325.594 121.936 325.577 121.647C325.559 121.358 325.551 121.06 325.551 120.755V110.939C325.551 110.64 325.559 110.35 325.577 110.07C325.594 109.789 325.65 109.55 325.746 109.352C325.842 109.154 325.997 109.014 326.21 108.932C326.422 108.85 326.724 108.859 327.115 108.957L330.1 109.71ZM328.68 111.79V121.46L330.018 121.798C330.313 121.858 330.577 121.855 330.81 121.789C330.906 121.765 331.002 121.723 331.098 121.664C331.195 121.604 331.28 121.527 331.356 121.432C331.431 121.336 331.491 121.214 331.536 121.065C331.581 120.917 331.603 120.738 331.603 120.53V114.382C331.603 114.153 331.581 113.944 331.536 113.755C331.491 113.567 331.431 113.397 331.356 113.246C331.28 113.095 331.195 112.962 331.098 112.848C331.002 112.733 330.906 112.636 330.81 112.556C330.577 112.366 330.313 112.223 330.018 112.127L328.68 111.79Z" fill="white"/>
</g>
<path fill-rule="evenodd" clip-rule="evenodd" d="M228.993 284.376L156.519 328.085L147.414 322.573L270.031 243L272.25 206.654L333.946 221.689L376.656 233.44L376.788 275.418L198.159 347.81V337.001L270.679 300.462L270.879 300.294L228.993 284.376Z" fill="url(#paint6_linear_0_9)"/>
<path d="M136.818 327.219C134.834 327.955 133.823 330.161 134.559 332.145C135.295 334.129 137.501 335.14 139.485 334.404C145.567 332.146 150.151 329.92 153.289 327.655L154.948 326.459L152.583 258.749C152.509 256.634 150.735 254.979 148.62 255.053C146.505 255.127 144.851 256.901 144.924 259.016L146.493 303.949C146.932 316.515 146.988 318.115 147.142 322.528C144.668 324.01 141.217 325.586 136.818 327.219Z" fill="url(#paint7_linear_0_9)"/>
<path d="M180.683 347.959C178.77 348.865 177.954 351.15 178.86 353.062C179.766 354.975 182.051 355.791 183.964 354.885C190.315 351.876 194.792 349.4 197.492 347.37L199.088 346.17L196.755 279.36C196.681 277.245 194.907 275.59 192.792 275.664C190.677 275.738 189.022 277.512 189.096 279.627L190.643 323.922C191.078 336.374 191.132 337.924 191.286 342.343C188.928 343.848 185.378 345.735 180.683 347.959Z" fill="url(#paint8_linear_0_9)"/>
<path fill-rule="evenodd" clip-rule="evenodd" d="M128.451 191.702C133.362 191.185 138.258 194.696 139.388 199.542L140.511 227.874C140.511 227.874 137.705 222.18 131.541 222.128C125.378 222.075 116.863 226.839 116.863 226.839L119.383 201.645C119.48 196.67 123.54 192.218 128.451 191.702Z" fill="#D8D8D8"/>
<ellipse cx="128.579" cy="228.199" rx="11.495" ry="7.23799" transform="rotate(-2 128.579 228.199)" fill="#9D9D9D"/>
<path d="M123.137 220.751C123.153 221.21 122.687 224.129 121.717 229.447C121.465 230.827 120.404 236.587 120.156 237.938C119.472 241.677 118.908 244.819 118.368 247.925C117.779 251.321 117.248 254.508 116.768 257.555C113.876 275.916 114.357 279.536 116.163 285.532C116.774 287.559 118.911 288.707 120.937 288.096C122.964 287.486 124.111 285.348 123.501 283.322C122.178 278.931 121.668 275.701 124.338 258.747C124.811 255.743 125.335 252.595 125.919 249.237C126.454 246.157 127.014 243.036 127.694 239.318C127.94 237.974 129.003 232.211 129.256 230.822C130.438 224.342 130.842 221.811 130.796 220.484C130.722 218.369 128.948 216.714 126.833 216.788C124.718 216.862 123.063 218.636 123.137 220.751Z" fill="url(#paint9_linear_0_9)"/>
<path fill-rule="evenodd" clip-rule="evenodd" d="M151.411 162.271L266.666 196.534C266.666 196.534 272.589 219.754 273.336 241.132C274.082 262.51 269.846 287.592 269.846 287.592L156.788 243.055L100.2 185.399L151.411 162.271Z" fill="url(#paint10_linear_0_9)"/>
<path fill-rule="evenodd" clip-rule="evenodd" d="M216.459 222.23L266.667 196.538C266.667 196.538 272.59 219.758 273.337 241.135C274.083 262.513 269.847 287.596 269.847 287.596L219.868 313.164L216.459 222.23Z" fill="#5A5E7E"/>
<path fill-rule="evenodd" clip-rule="evenodd" d="M100.245 185.363L216.441 222.149C216.441 222.149 222.364 245.369 223.11 266.747C223.857 288.125 219.621 313.207 219.621 313.207L107.562 270.669C107.562 270.669 107.271 240.173 106.775 225.978C106.28 211.784 100.245 185.363 100.245 185.363Z" fill="url(#paint11_linear_0_9)"/>
<path fill-rule="evenodd" clip-rule="evenodd" d="M163.271 277.106C178.669 282.995 190.672 274.045 190.081 257.116C189.49 240.186 176.52 221.456 161.112 215.281C145.703 209.106 133.7 218.056 134.301 235.272C134.902 252.487 147.872 271.217 163.271 277.106Z" fill="url(#paint12_linear_0_9)"/>
<path fill-rule="evenodd" clip-rule="evenodd" d="M176.648 273.837C182.228 271.215 185.672 265.025 185.373 256.464C184.864 241.894 173.702 225.774 160.441 220.46C153.755 217.78 147.813 218.41 143.632 221.593L119.601 235.502L152.187 288.331L176.648 273.837Z" fill="url(#paint13_linear_0_9)"/>
<path fill-rule="evenodd" clip-rule="evenodd" d="M137.478 288.17C150.73 293.238 161.06 285.535 160.551 270.965C160.043 256.395 148.88 240.276 135.62 234.962C122.359 229.648 112.029 237.35 112.546 252.166C113.063 266.982 124.226 283.101 137.478 288.17Z" fill="url(#paint14_linear_0_9)"/>
<path fill-rule="evenodd" clip-rule="evenodd" d="M136.422 282.309C146.747 286.258 154.796 280.257 154.4 268.905C154.003 257.553 145.306 244.993 134.974 240.853C124.642 236.712 116.593 242.714 116.996 254.257C117.399 265.801 126.097 278.36 136.422 282.309Z" fill="url(#paint15_linear_0_9)"/>
<path fill-rule="evenodd" clip-rule="evenodd" d="M192.952 225.087C192.836 223.872 194 222.935 195.162 223.307L208.849 227.686C210.05 228.07 210.94 229.087 211.161 230.328L212.639 238.632C212.976 240.521 211.183 242.091 209.354 241.508L197.795 237.823C195.525 237.099 193.905 235.091 193.679 232.719L192.952 225.087Z" fill="url(#paint16_linear_0_9)"/>
<ellipse cx="251.694" cy="264.798" rx="11.495" ry="7.23799" transform="rotate(-2 251.694 264.798)" fill="url(#paint17_linear_0_9)"/>
<path d="M249.278 252.906C249.17 252.95 248.701 259.841 248.011 265.202C247.832 266.593 247.073 272.401 246.897 273.763C246.409 277.533 246.01 280.7 245.634 283.83C245.223 287.252 244.945 293.468 244.837 296.924C244.489 308.018 245.308 309.447 247.426 315.341C248.141 317.332 250.336 318.367 252.327 317.651C254.319 316.935 255.353 314.741 254.638 312.749C253.087 308.433 251.711 307.496 252.459 297.718C252.703 294.528 252.836 288.129 253.243 284.745C253.616 281.641 254.012 278.495 254.497 274.747C254.672 273.392 255.431 267.581 255.612 266.18C256.453 259.648 257.014 254.295 257.037 252.322C255.783 252.095 255.074 252.043 252.966 252.228C250.857 252.412 249.868 252.668 249.278 252.906Z" fill="url(#paint18_linear_0_9)"/>
<path fill-rule="evenodd" clip-rule="evenodd" d="M262.503 236.141C261.373 231.295 256.476 227.784 251.566 228.301C246.655 228.817 242.595 233.269 242.498 238.244L239.978 263.438C239.978 263.438 240.207 263.31 240.618 263.095C241.937 260.068 246.249 257.746 251.441 257.565C257.335 257.359 262.291 259.984 263.076 263.561C263.445 264.108 263.625 264.473 263.625 264.473L262.503 236.141Z" fill="url(#paint19_linear_0_9)"/>
<ellipse cx="127.405" cy="182.381" rx="9.36634" ry="5.38315" transform="rotate(-2 127.405 182.381)" fill="url(#paint20_linear_0_9)"/>
<ellipse cx="127.226" cy="177.266" rx="9.36634" ry="4.82533" transform="rotate(-2 127.226 177.266)" fill="url(#paint21_linear_0_9)"/>
<path fill-rule="evenodd" clip-rule="evenodd" d="M148.269 193.899L180.883 204.743L225.557 184.367C225.557 184.367 207.339 165.273 185.19 165.855C169.883 166.258 147.613 175.114 147.613 175.114L148.269 193.899Z" fill="url(#paint22_linear_0_9)"/>
<path fill-rule="evenodd" clip-rule="evenodd" d="M181.201 204.942C181.201 204.942 180.013 190.26 180.48 184.303C197.703 176.126 225.712 184.345 225.712 184.345L181.201 204.942Z" fill="url(#paint23_linear_0_9)"/>
<path fill-rule="evenodd" clip-rule="evenodd" d="M147.6 175.134L180.299 184.399L181.013 204.824L148.253 193.856L147.6 175.134Z" fill="url(#paint24_linear_0_9)"/>
<path d="M153.846 209.038C153.846 209.038 158.748 208.831 161.891 209.965C165.034 211.099 168.886 214.069 168.886 214.069" stroke="url(#paint25_linear_0_9)" stroke-width="2.55" stroke-linecap="round" stroke-linejoin="round"/>
<path d="M144.187 183.104C144.187 183.104 149.499 192.486 157.276 186.609" stroke="url(#paint26_linear_0_9)" stroke-width="3.4" stroke-linecap="round"/>
<path d="M170.013 190.723C170.013 190.723 175.325 200.105 183.103 194.228" stroke="url(#paint27_linear_0_9)" stroke-width="3.4" stroke-linecap="round"/>
<path d="M144.506 175.914L155.813 173.754" stroke="#C7CAD9" stroke-width="2.55" stroke-linecap="round"/>
<path d="M183.495 187.334L171.797 178.593" stroke="#C7CAD9" stroke-width="2.55" stroke-linecap="round"/>
<path fill-rule="evenodd" clip-rule="evenodd" d="M146.918 318.133L138.826 321.548C138.826 321.548 129.274 319.434 125.898 322C122.522 324.566 122.417 332.667 127.502 335.293C128.646 335.884 129.806 336.332 130.917 336.672C135.427 338.054 140.146 336.593 144.324 334.402L156.977 327.766C156.977 327.766 158.007 316.824 154.651 315.4C154.748 318.178 153.255 318.798 151.051 319.058C148.848 319.319 146.918 318.133 146.918 318.133Z" fill="url(#paint28_linear_0_9)"/>
<path fill-rule="evenodd" clip-rule="evenodd" d="M191.033 337.04L182.942 340.456C182.942 340.456 173.39 338.341 170.014 340.907C166.638 343.473 166.532 351.574 171.617 354.2C172.762 354.791 173.921 355.239 175.032 355.58C179.542 356.961 184.262 355.5 188.439 353.309L201.092 346.674C201.092 346.674 202.122 335.732 198.766 334.308C198.863 337.085 197.37 337.705 195.167 337.966C192.963 338.226 191.033 337.04 191.033 337.04Z" fill="url(#paint29_linear_0_9)"/>
<defs>
<linearGradient id="paint0_linear_0_9" x1="257.283" y1="274.85" x2="438.016" y2="130.484" gradientUnits="userSpaceOnUse">
<stop stop-color="#C0C9DD"/>
<stop offset="1" stop-color="#F5F9FF"/>
</linearGradient>
<linearGradient id="paint1_linear_0_9" x1="165.418" y1="-11.8123" x2="165.418" y2="166.449" gradientUnits="userSpaceOnUse">
<stop stop-color="#8B8FB2"/>
<stop offset="1" stop-color="#686B89"/>
</linearGradient>
<linearGradient id="paint2_linear_0_9" x1="317.876" y1="391.06" x2="507.743" y2="301.665" gradientUnits="userSpaceOnUse">
<stop stop-color="#D0D2DC"/>
<stop offset="1" stop-color="#F5F9FF"/>
</linearGradient>
<linearGradient id="paint3_linear_0_9" x1="255.475" y1="54.2069" x2="255.475" y2="37.0154" gradientUnits="userSpaceOnUse">
<stop stop-color="#B8BDCE"/>
<stop offset="1" stop-color="#A1A7BC"/>
</linearGradient>
<linearGradient id="paint4_linear_0_9" x1="277.565" y1="81.3946" x2="359.866" y2="-2.57979" gradientUnits="userSpaceOnUse">
<stop stop-color="#D9DCE5"/>
<stop offset="1" stop-color="#B2B6C6"/>
</linearGradient>
<linearGradient id="paint5_linear_0_9" x1="174.681" y1="-40.3662" x2="-41.7452" y2="23.7021" gradientUnits="userSpaceOnUse">
<stop stop-color="white"/>
<stop offset="1" stop-color="#DBE0EB"/>
</linearGradient>
<linearGradient id="paint6_linear_0_9" x1="137.464" y1="166.629" x2="113.844" y2="325.476" gradientUnits="userSpaceOnUse">
<stop stop-color="#6B6E8C" stop-opacity="0.01"/>
<stop offset="1" stop-color="#6C708D" stop-opacity="0.224609"/>
</linearGradient>
<linearGradient id="paint7_linear_0_9" x1="131.691" y1="255.644" x2="134.455" y2="334.776" gradientUnits="userSpaceOnUse">
<stop stop-color="#CDD0DD"/>
<stop offset="1" stop-color="#9EA4B8"/>
</linearGradient>
<linearGradient id="paint8_linear_0_9" x1="175.863" y1="276.255" x2="178.627" y2="355.386" gradientUnits="userSpaceOnUse">
<stop stop-color="#CDD0DD"/>
<stop offset="1" stop-color="#9EA4B8"/>
</linearGradient>
<linearGradient id="paint9_linear_0_9" x1="132.188" y1="287.831" x2="129.968" y2="224.245" gradientUnits="userSpaceOnUse">
<stop stop-color="#CDD0DD"/>
<stop offset="1" stop-color="#9EA4B8"/>
</linearGradient>
<linearGradient id="paint10_linear_0_9" x1="209.581" y1="237.644" x2="214.6" y2="185.761" gradientUnits="userSpaceOnUse">
<stop stop-color="#8C8FAD"/>
<stop offset="1" stop-color="#5E6281"/>
</linearGradient>
<linearGradient id="paint11_linear_0_9" x1="44.8192" y1="154.752" x2="88.5677" y2="317.871" gradientUnits="userSpaceOnUse">
<stop stop-color="#A1A5BE"/>
<stop offset="1" stop-color="#686B89"/>
</linearGradient>
<linearGradient id="paint12_linear_0_9" x1="92.2625" y1="240.854" x2="146.733" y2="295.733" gradientUnits="userSpaceOnUse">
<stop stop-color="#58607E"/>
<stop offset="1" stop-color="#302C48"/>
</linearGradient>
<linearGradient id="paint13_linear_0_9" x1="157.139" y1="234.818" x2="174.576" y2="259.828" gradientUnits="userSpaceOnUse">
<stop stop-color="#767895"/>
<stop offset="1" stop-color="#464665"/>
</linearGradient>
<linearGradient id="paint14_linear_0_9" x1="67.5956" y1="269.159" x2="124.423" y2="308.812" gradientUnits="userSpaceOnUse">
<stop stop-color="#A1A5BE"/>
<stop offset="1" stop-color="#686B89"/>
</linearGradient>
<linearGradient id="paint15_linear_0_9" x1="90.5469" y1="251.809" x2="105.809" y2="289.361" gradientUnits="userSpaceOnUse">
<stop stop-color="#585F7E"/>
<stop offset="1" stop-color="#302C48"/>
</linearGradient>
<linearGradient id="paint16_linear_0_9" x1="189.164" y1="212.506" x2="183.738" y2="243.597" gradientUnits="userSpaceOnUse">
<stop stop-color="#BEC0D4"/>
<stop offset="1" stop-color="#898DA9"/>
</linearGradient>
<linearGradient id="paint17_linear_0_9" x1="254.265" y1="277.904" x2="264.662" y2="260.692" gradientUnits="userSpaceOnUse">
<stop stop-color="#4A4D6C"/>
<stop offset="1" stop-color="#302C48"/>
</linearGradient>
<linearGradient id="paint18_linear_0_9" x1="252.719" y1="305.539" x2="267.442" y2="300.778" gradientUnits="userSpaceOnUse">
<stop stop-color="#CDD0DD"/>
<stop offset="1" stop-color="#7C8199"/>
</linearGradient>
<linearGradient id="paint19_linear_0_9" x1="243.351" y1="264.127" x2="264.319" y2="262.447" gradientUnits="userSpaceOnUse">
<stop stop-color="#A1A5BE"/>
<stop offset="1" stop-color="#686B89"/>
</linearGradient>
<linearGradient id="paint20_linear_0_9" x1="113.292" y1="191.82" x2="127.405" y2="191.82" gradientUnits="userSpaceOnUse">
<stop stop-color="#BABDD1"/>
<stop offset="1" stop-color="#8488A4"/>
</linearGradient>
<linearGradient id="paint21_linear_0_9" x1="114.9" y1="168.392" x2="116.748" y2="184.384" gradientUnits="userSpaceOnUse">
<stop stop-color="#A1A5BE"/>
<stop offset="1" stop-color="#686B89"/>
</linearGradient>
<linearGradient id="paint22_linear_0_9" x1="169.843" y1="187.492" x2="170.92" y2="167.623" gradientUnits="userSpaceOnUse">
<stop stop-color="#A1A5BE"/>
<stop offset="1" stop-color="#686B89"/>
</linearGradient>
<linearGradient id="paint23_linear_0_9" x1="137.687" y1="202.729" x2="159.88" y2="237.889" gradientUnits="userSpaceOnUse">
<stop stop-color="#ACB0C7"/>
<stop offset="1" stop-color="#747896"/>
</linearGradient>
<linearGradient id="paint24_linear_0_9" x1="61.6605" y1="196.235" x2="137.995" y2="246.314" gradientUnits="userSpaceOnUse">
<stop stop-color="#BABDD1"/>
<stop offset="1" stop-color="#8488A4"/>
</linearGradient>
<linearGradient id="paint25_linear_0_9" x1="110.142" y1="184.352" x2="106.803" y2="195.663" gradientUnits="userSpaceOnUse">
<stop stop-color="#5E587E"/>
<stop offset="1" stop-color="#302C48"/>
</linearGradient>
<linearGradient id="paint26_linear_0_9" x1="124.811" y1="179.665" x2="126.469" y2="196.093" gradientUnits="userSpaceOnUse">
<stop stop-color="#5E587E"/>
<stop offset="1" stop-color="#302C48"/>
</linearGradient>
<linearGradient id="paint27_linear_0_9" x1="150.637" y1="187.283" x2="152.295" y2="203.711" gradientUnits="userSpaceOnUse">
<stop stop-color="#5E587E"/>
<stop offset="1" stop-color="#302C48"/>
</linearGradient>
<linearGradient id="paint28_linear_0_9" x1="113.433" y1="331.765" x2="128.258" y2="345.607" gradientUnits="userSpaceOnUse">
<stop stop-color="#62607E"/>
<stop offset="1" stop-color="#302C48"/>
</linearGradient>
<linearGradient id="paint29_linear_0_9" x1="157.548" y1="350.672" x2="172.373" y2="364.514" gradientUnits="userSpaceOnUse">
<stop stop-color="#62607E"/>
<stop offset="1" stop-color="#302C48"/>
</linearGradient>
</defs>
</svg>
