<svg width="210" height="224" viewBox="0 0 210 224" fill="none" xmlns="http://www.w3.org/2000/svg">
<path fill-rule="evenodd" clip-rule="evenodd" d="M35.5694 223.38C37.251 223.38 82.4827 212.218 82.4827 212.218L127.413 208.265L183.527 207.5L163.317 98.7549L149.99 69.1859L35.5694 206.937C35.5694 206.937 31.2968 223.38 35.5694 223.38Z" fill="url(#paint0_linear_0_1239)"/>
<mask id="path-2-outside-1_0_1239" maskUnits="userSpaceOnUse" x="7.68631" y="55.7235" width="171.149" height="168.655" fill="black">
<rect fill="white" x="7.68631" y="55.7235" width="171.149" height="168.655"/>
<path fill-rule="evenodd" clip-rule="evenodd" d="M15.853 98.7891C15.7787 98.3199 16.014 97.856 16.4365 97.6388L59.4493 75.521C59.5882 75.4496 59.7331 75.4109 59.8766 75.401C60.0162 75.3661 60.166 75.3581 60.3201 75.3831L107.806 83.085L150.588 61.0861C151.254 60.7436 152.06 61.1525 152.177 61.8923L171.023 180.877C171.097 181.346 170.862 181.81 170.439 182.027L127.426 204.145C127.288 204.216 127.143 204.255 126.999 204.265C126.859 204.3 126.71 204.308 126.556 204.283L79.0696 196.581L36.2878 218.58C35.6217 218.922 34.8155 218.513 34.6983 217.774L15.853 98.7891Z"/>
</mask>
<path fill-rule="evenodd" clip-rule="evenodd" d="M15.853 98.7891C15.7787 98.3199 16.014 97.856 16.4365 97.6388L59.4493 75.521C59.5882 75.4496 59.7331 75.4109 59.8766 75.401C60.0162 75.3661 60.166 75.3581 60.3201 75.3831L107.806 83.085L150.588 61.0861C151.254 60.7436 152.06 61.1525 152.177 61.8923L171.023 180.877C171.097 181.346 170.862 181.81 170.439 182.027L127.426 204.145C127.288 204.216 127.143 204.255 126.999 204.265C126.859 204.3 126.71 204.308 126.556 204.283L79.0696 196.581L36.2878 218.58C35.6217 218.922 34.8155 218.513 34.6983 217.774L15.853 98.7891Z" fill="#ADE1F1"/>
<path d="M16.4365 97.6388L14.4244 93.7258L14.4244 93.7258L16.4365 97.6388ZM15.853 98.7891L20.1989 98.1008L15.853 98.7891ZM59.4493 75.521L57.4372 71.6081L57.4372 71.6081L59.4493 75.521ZM59.8766 75.401L60.1797 79.7905L60.5676 79.7637L60.9448 79.6693L59.8766 75.401ZM60.3201 75.3831L61.0246 71.0399L61.0246 71.0399L60.3201 75.3831ZM107.806 83.085L107.102 87.4283L108.531 87.6601L109.818 86.998L107.806 83.085ZM150.588 61.0861L148.576 57.1731L148.576 57.1731L150.588 61.0861ZM170.439 182.027L168.427 178.114L168.427 178.114L170.439 182.027ZM127.426 204.145L129.438 208.058L129.438 208.058L127.426 204.145ZM126.999 204.265L126.696 199.875L126.308 199.902L125.931 199.996L126.999 204.265ZM126.556 204.283L125.851 208.626L125.851 208.626L126.556 204.283ZM79.0696 196.581L79.7741 192.238L78.345 192.006L77.0575 192.668L79.0696 196.581ZM36.2878 218.58L38.2999 222.493L38.2999 222.493L36.2878 218.58ZM34.6983 217.774L30.3525 218.462L34.6983 217.774ZM14.4244 93.7258C12.312 94.812 11.1356 97.1315 11.5072 99.4774L20.1989 98.1008C20.4218 99.5084 19.716 100.9 18.4486 101.552L14.4244 93.7258ZM57.4372 71.6081L14.4244 93.7258L18.4486 101.552L61.4614 79.434L57.4372 71.6081ZM59.5736 71.0114C58.8413 71.062 58.1141 71.26 57.4372 71.6081L61.4614 79.434C61.0623 79.6393 60.6249 79.7598 60.1797 79.7905L59.5736 71.0114ZM61.0246 71.0399C60.2733 70.918 59.5204 70.9544 58.8084 71.1326L60.9448 79.6693C60.5119 79.7777 60.0587 79.7982 59.6157 79.7264L61.0246 71.0399ZM108.511 78.7418L61.0246 71.0399L59.6157 79.7264L107.102 87.4283L108.511 78.7418ZM148.576 57.1731L105.794 79.1721L109.818 86.998L152.6 64.9991L148.576 57.1731ZM156.523 61.204C155.937 57.505 151.906 55.4605 148.576 57.1731L152.6 64.9991C150.602 66.0267 148.183 64.8 147.832 62.5806L156.523 61.204ZM175.369 180.188L156.523 61.204L147.832 62.5806L166.677 181.565L175.369 180.188ZM172.451 185.94C174.564 184.854 175.74 182.534 175.369 180.188L166.677 181.565C166.454 180.157 167.16 178.766 168.427 178.114L172.451 185.94ZM129.438 208.058L172.451 185.94L168.427 178.114L125.414 200.232L129.438 208.058ZM127.302 208.654C128.034 208.604 128.761 208.406 129.438 208.058L125.414 200.232C125.814 200.026 126.251 199.906 126.696 199.875L127.302 208.654ZM125.851 208.626C126.602 208.748 127.355 208.711 128.067 208.533L125.931 199.996C126.364 199.888 126.817 199.868 127.26 199.939L125.851 208.626ZM78.3652 200.924L125.851 208.626L127.26 199.939L79.7741 192.238L78.3652 200.924ZM38.2999 222.493L81.0817 200.494L77.0575 192.668L34.2757 214.667L38.2999 222.493ZM30.3525 218.462C30.9384 222.161 34.9693 224.205 38.2999 222.493L34.2757 214.667C36.2741 213.639 38.6926 214.866 39.0442 217.085L30.3525 218.462ZM11.5072 99.4774L30.3525 218.462L39.0442 217.085L20.1989 98.1008L11.5072 99.4774Z" fill="url(#paint1_linear_0_1239)" mask="url(#path-2-outside-1_0_1239)"/>
<path fill-rule="evenodd" clip-rule="evenodd" d="M15.853 98.7891C15.7787 98.3199 16.014 97.856 16.4365 97.6388L59.4493 75.521C60.1155 75.1785 60.9216 75.5874 61.0388 76.3272L79.8841 195.312C79.9584 195.781 79.7231 196.245 79.3007 196.462L36.2878 218.58C35.6217 218.922 34.8155 218.513 34.6983 217.774L15.853 98.7891Z" fill="#ADE1F1"/>
<path fill-rule="evenodd" clip-rule="evenodd" d="M27.1643 171.028C27.0886 170.558 27.3239 170.093 27.7473 169.875L70.7619 147.756C71.4269 147.414 72.232 147.821 72.3509 148.56L79.8818 195.31C79.9575 195.78 79.7223 196.245 79.2988 196.463L36.2842 218.582C35.6192 218.924 34.8141 218.517 34.6952 217.778L27.1643 171.028Z" fill="#ADF1AF"/>
<path fill-rule="evenodd" clip-rule="evenodd" d="M106.992 84.3542C106.917 83.885 107.153 83.4211 107.575 83.2038L150.588 61.0861C151.254 60.7436 152.06 61.1525 152.177 61.8923L171.023 180.877C171.097 181.346 170.862 181.81 170.439 182.027L127.426 204.145C126.76 204.487 125.954 204.078 125.837 203.339L106.992 84.3542Z" fill="#ADE1F1"/>
<path fill-rule="evenodd" clip-rule="evenodd" d="M118.57 157.861L135.622 166.248L165.373 151.806C166.042 151.481 166.835 151.901 166.942 152.638L171.035 180.886C171.102 181.351 170.867 181.807 170.449 182.022L127.425 204.146C126.759 204.488 125.953 204.08 125.835 203.341L118.57 157.861Z" fill="#ADF1AF"/>
<path fill-rule="evenodd" clip-rule="evenodd" d="M108.973 84.0404C108.898 83.5712 108.531 83.2027 108.062 83.1266L60.3199 75.3831C59.5805 75.2632 58.9402 75.9012 59.0573 76.641L77.9026 195.625C77.9769 196.095 78.344 196.463 78.813 196.539L126.555 204.283C127.295 204.403 127.935 203.765 127.818 203.025L108.973 84.0404Z" fill="#9AD6E9"/>
<path fill-rule="evenodd" clip-rule="evenodd" d="M106.321 155.269C105.919 155.156 105.615 154.825 105.537 154.415L100.722 129.053L68.2036 123.779C67.4656 123.659 66.8258 124.295 66.9405 125.034L77.9047 195.623C77.9778 196.093 78.3454 196.463 78.8155 196.54L126.56 204.283C127.298 204.403 127.938 203.768 127.823 203.029L121.046 159.397L106.321 155.269Z" fill="#9AE99C"/>
<path d="M24.3266 170.051L68.717 149.048L64.003 122.077L75.1426 124.121L101.578 127.2L106.024 155.575L119.105 157.814L135.242 166.156L168.743 150.349" stroke="white" stroke-width="6.6" stroke-linejoin="round"/>
<path d="M64.0245 130.18L46.569 126.277L42.5237 103.532L53.2638 97.3315L50.6839 78.8645" stroke="white" stroke-width="3.3" stroke-linejoin="round"/>
<path d="M45.939 162.476L61.239 174.108L73.9932 168.303L122.921 177.034L127.292 207.054" stroke="white" stroke-width="3.3" stroke-linejoin="round"/>
<path d="M103.166 127.029L99.2808 97.6697L110.839 100.262L125.879 120.875L150.451 109.526L158.584 87.2613" stroke="white" stroke-width="3.3" stroke-linejoin="round"/>
<path fill-rule="evenodd" clip-rule="evenodd" d="M174.36 170.904L89.2451 127.724L101.871 122.957L110.158 127.724L149.021 71.1835H158.039L174.36 170.904Z" fill="url(#paint2_linear_0_1239)"/>
<path d="M38.0723 30.9095L24.2099 21.6973C22.7566 20.7316 20.8107 21.1264 19.8636 22.5793C18.9165 24.0321 19.3268 25.9928 20.78 26.9585L34.6425 36.1707C36.0958 37.1364 38.0417 36.7416 38.9888 35.2887C39.9359 33.8359 39.5256 31.8752 38.0723 30.9095Z" fill="url(#paint3_linear_0_1239)"/>
<path d="M30.7258 42.591L14.3149 39.8136C12.5944 39.5225 10.9774 40.6747 10.703 42.3871C10.4287 44.0996 11.601 45.7238 13.3215 46.015L29.7324 48.7923C31.4528 49.0835 33.0699 47.9313 33.3442 46.2189C33.6185 44.5064 32.4462 42.8822 30.7258 42.591Z" fill="url(#paint4_linear_0_1239)"/>
<path d="M50.3907 23.7304L42.9915 8.82121C42.2158 7.2582 40.3332 6.6272 38.7866 7.41183C37.2399 8.19646 36.6149 10.0996 37.3906 11.6626L44.7898 26.5718C45.5655 28.1348 47.4481 28.7658 48.9947 27.9812C50.5414 27.1965 51.1664 25.2934 50.3907 23.7304Z" fill="url(#paint5_linear_0_1239)"/>
<path d="M171.499 37.3352L186.974 31.2065C188.596 30.564 190.418 31.3548 191.042 32.9728C191.666 34.5908 190.857 36.4233 189.235 37.0658L173.76 43.1945C172.138 43.837 170.317 43.0462 169.692 41.4282C169.068 39.8102 169.877 37.9777 171.499 37.3352Z" fill="url(#paint6_linear_0_1239)"/>
<path d="M176.257 50.2889L192.886 50.9842C194.63 51.0571 195.972 52.5203 195.884 54.2524C195.796 55.9845 194.312 57.3295 192.569 57.2566L175.939 56.5612C174.196 56.4883 172.853 55.0251 172.941 53.2931C173.029 51.561 174.513 50.216 176.257 50.2889Z" fill="url(#paint7_linear_0_1239)"/>
<path d="M160.943 27.7519L171.28 14.7069C172.364 13.3393 174.336 13.1135 175.686 14.2025C177.036 15.2916 177.252 17.2831 176.168 18.6506L165.831 31.6957C164.747 33.0632 162.774 33.289 161.424 32.2C160.075 31.1109 159.859 29.1194 160.943 27.7519Z" fill="url(#paint8_linear_0_1239)"/>
<path fill-rule="evenodd" clip-rule="evenodd" d="M90.6036 38.7499C90.0502 38.7903 89.495 38.8446 88.9383 38.9129C70.2939 41.2022 57.0659 58.42 59.3927 77.3699C59.7648 80.4003 60.5121 83.2916 61.5814 86.0012L61.5774 86.013C66.6472 99.1823 76.0296 117.378 92.1238 130.217C96.8995 128.97 101.4 128.235 101.587 128.205L97.0377 91.1521C96.4983 91.2736 95.9479 91.3694 95.3876 91.4382C86.2182 92.5641 77.8695 86.0206 76.7402 76.823C75.6108 67.6254 82.1286 59.2566 91.2979 58.1308C91.8583 58.062 92.4155 58.0218 92.9683 58.0092L90.6036 38.7499Z" fill="url(#paint9_linear_0_1239)"/>
<path fill-rule="evenodd" clip-rule="evenodd" d="M82.7973 39.8679C82.244 39.9087 81.6888 39.9632 81.1321 40.0315C62.4878 42.3208 49.235 59.3374 51.5313 78.0391C52.0617 82.3589 53.3753 86.3907 55.3117 90.0089C65.5684 111.039 92.2329 130.44 92.2329 130.44C92.2329 130.44 92.7728 129.812 93.7 128.663L89.1212 91.372C88.5818 91.4934 88.0314 91.5893 87.4711 91.6581C78.3017 92.7839 69.953 86.2405 68.8237 77.0429C67.6943 67.8453 74.2121 59.4765 83.3814 58.3506C83.9418 58.2818 84.499 58.2417 85.0518 58.229L82.7973 39.8679Z" fill="url(#paint10_linear_0_1239)"/>
<path fill-rule="evenodd" clip-rule="evenodd" d="M112.049 39.6651C112.603 39.6867 113.158 39.7218 113.716 39.7706C132.394 41.4047 146.216 57.8075 144.588 76.4073C144.199 80.86 142.959 85.035 141.042 88.7876C135.575 101.357 125.489 113.682 111.768 129.165C109.158 128.181 104.718 126.553 104.718 126.553C104.718 126.553 104.632 126.467 104.47 126.301L107.582 90.7279C108.124 90.8303 108.677 90.9069 109.238 90.956C118.424 91.7596 126.525 84.9217 127.334 75.683C128.142 66.4443 121.351 58.3034 112.165 57.4997C111.604 57.4506 111.046 57.43 110.494 57.4368L112.049 39.6651Z" fill="url(#paint11_linear_0_1239)"/>
<path fill-rule="evenodd" clip-rule="evenodd" d="M119.343 40.1132C119.897 40.1345 120.452 40.1695 121.01 40.2183C139.687 41.8523 153.496 58.4055 151.853 77.1908C151.473 81.5299 150.302 85.6085 148.496 89.2954C138.992 110.689 113.065 131.03 113.065 131.03C113.065 131.03 112.505 130.422 111.54 129.305L114.817 91.8473C115.359 91.9498 115.912 92.0263 116.473 92.0754C125.659 92.8791 133.76 86.0411 134.569 76.8024C135.377 67.5637 128.586 59.4228 119.4 58.6192C118.839 58.5701 118.281 58.5495 117.73 58.5563L119.343 40.1132Z" fill="url(#paint12_linear_0_1239)"/>
<defs>
<linearGradient id="paint0_linear_0_1239" x1="214.71" y1="202.863" x2="196.815" y2="160.843" gradientUnits="userSpaceOnUse">
<stop stop-color="#C8D4DE" stop-opacity="0.01"/>
<stop offset="1" stop-color="#DEEAF4"/>
</linearGradient>
<linearGradient id="paint1_linear_0_1239" x1="-51.5493" y1="147.904" x2="75.7288" y2="254.601" gradientUnits="userSpaceOnUse">
<stop stop-color="#EFF6FF"/>
<stop offset="1" stop-color="white"/>
</linearGradient>
<linearGradient id="paint2_linear_0_1239" x1="139.662" y1="148.786" x2="96.0926" y2="112.233" gradientUnits="userSpaceOnUse">
<stop stop-color="#80C9C7" stop-opacity="0.01"/>
<stop offset="1" stop-color="#3E80B3"/>
</linearGradient>
<linearGradient id="paint3_linear_0_1239" x1="18.2188" y1="23.0769" x2="28.4542" y2="41.5422" gradientUnits="userSpaceOnUse">
<stop stop-color="#E8F1F5"/>
<stop offset="1" stop-color="#E5EAF0"/>
</linearGradient>
<linearGradient id="paint4_linear_0_1239" x1="9.40283" y1="43.5107" x2="26.2639" y2="56.2165" gradientUnits="userSpaceOnUse">
<stop stop-color="#E8F1F5"/>
<stop offset="1" stop-color="#E5EAF0"/>
</linearGradient>
<linearGradient id="paint5_linear_0_1239" x1="37.1133" y1="7.02039" x2="36.7448" y2="28.1296" gradientUnits="userSpaceOnUse">
<stop stop-color="#E8F1F5"/>
<stop offset="1" stop-color="#E5EAF0"/>
</linearGradient>
<linearGradient id="paint6_linear_0_1239" x1="192.547" y1="33.8015" x2="178.696" y2="49.7352" gradientUnits="userSpaceOnUse">
<stop stop-color="#E8F1F5"/>
<stop offset="1" stop-color="#E5EAF0"/>
</linearGradient>
<linearGradient id="paint7_linear_0_1239" x1="196.922" y1="55.6218" x2="177.788" y2="64.5443" gradientUnits="userSpaceOnUse">
<stop stop-color="#E8F1F5"/>
<stop offset="1" stop-color="#E5EAF0"/>
</linearGradient>
<linearGradient id="paint8_linear_0_1239" x1="177.404" y1="14.1675" x2="173.376" y2="34.892" gradientUnits="userSpaceOnUse">
<stop stop-color="#E8F1F5"/>
<stop offset="1" stop-color="#E5EAF0"/>
</linearGradient>
<linearGradient id="paint9_linear_0_1239" x1="62.7344" y1="53.2141" x2="117.464" y2="97.9839" gradientUnits="userSpaceOnUse">
<stop stop-color="#FF5E84"/>
<stop offset="1" stop-color="#E46B80"/>
</linearGradient>
<linearGradient id="paint10_linear_0_1239" x1="26.2568" y1="175.409" x2="93.3527" y2="166.001" gradientUnits="userSpaceOnUse">
<stop stop-color="#FFB8C6"/>
<stop offset="1" stop-color="#FF8194"/>
</linearGradient>
<linearGradient id="paint11_linear_0_1239" x1="143.817" y1="64.7953" x2="91.0884" y2="96.1029" gradientUnits="userSpaceOnUse">
<stop stop-color="#FFCFD5"/>
<stop offset="1" stop-color="#FFA2AB"/>
</linearGradient>
<linearGradient id="paint12_linear_0_1239" x1="183.047" y1="171.389" x2="115.539" y2="165.483" gradientUnits="userSpaceOnUse">
<stop stop-color="#FFB8C6"/>
<stop offset="1" stop-color="#FF8194"/>
</linearGradient>
</defs>
</svg>
