<svg width="11478" height="6921" viewBox="0 0 11478 6921" fill="none"
    xmlns="http://www.w3.org/2000/svg">
    <g filter="url(#filter0_dd_2890_33695)">
        <rect x="2039.13" y="16.6826" width="6394.4" height="812.814" rx="160" fill="white"/>
        <path d="M2705.44 319.905V358.554H2659.91V317.258C2659.91 278.608 2644.56 255.312 2609.35 255.312C2574.14 255.312 2559.05 278.608 2559.05 317.258V544.92C2559.05 583.569 2574.93 606.865 2609.35 606.865C2643.76 606.865 2659.91 583.569 2659.91 544.92V488.798H2705.44V541.743C2705.44 607.13 2674.73 650.015 2608.29 650.015C2541.84 650.015 2511.67 607.13 2511.67 541.743V319.375C2511.67 253.989 2542.37 211.104 2608.29 211.104C2674.21 211.104 2705.44 254.518 2705.44 319.905Z" fill="#263238"/>
        <path d="M2745.42 319.905C2745.42 253.989 2777.98 211.633 2843.63 211.633C2909.28 211.633 2942.64 253.989 2942.64 319.905V542.272C2942.64 607.659 2910.07 650.544 2843.63 650.544C2777.18 650.544 2745.42 607.659 2745.42 542.272V319.905ZM2792.54 544.92C2792.54 584.099 2809.21 606.865 2843.63 606.865C2878.04 606.865 2894.72 584.099 2894.72 544.92V317.257C2894.72 278.608 2878.57 255.312 2843.63 255.312C2808.69 255.312 2792.54 278.608 2792.54 317.257V544.92Z" fill="#263238"/>
        <path d="M3135.09 416.264V458.884H3036.08V644.191H2988.17V215.868H3158.91V259.548H3036.08V416.264H3135.09Z" fill="#263238"/>
        <path d="M3343.96 416.264V458.884H3244.95V644.191H3197.03V215.868H3368.05V259.548H3244.95V416.264H3343.96Z" fill="#263238"/>
        <path d="M3559.18 405.94V449.09H3453.29V602.1H3582.47V645.779H3405.37V215.868H3582.47V259.548H3453.29V405.94H3559.18Z" fill="#263238"/>
        <path d="M3780.48 405.94V449.09H3674.59V602.1H3803.78V645.779H3627.47V215.868H3804.57V259.548H3675.39V405.94H3780.48Z" fill="#263238"/>
        <path d="M4130.45 319.111V330.759H4085.18V316.728C4085.18 278.079 4070.36 255.312 4035.94 255.312C4001.53 255.312 3986.7 278.079 3986.7 316.199C3986.7 412.558 4131.24 422.088 4131.24 543.067C4131.24 608.189 4099.74 650.544 4034.09 650.544C3968.44 650.544 3937.47 608.189 3937.47 543.067V518.447H3982.47V544.92C3982.47 583.569 3998.35 606.336 4032.77 606.336C4067.18 606.336 4083.33 583.569 4083.33 544.92C4083.33 449.09 3939.32 439.03 3939.32 318.581C3939.32 252.136 3970.03 211.104 4034.62 211.104C4099.21 211.104 4130.45 253.989 4130.45 319.111Z" fill="#263238"/>
        <path d="M4220.72 452.531V646.308H4172.8V215.868H4220.72V409.646H4326.61V215.868H4374.52V646.308H4326.34V452.531H4220.72Z" fill="#263238"/>
        <path d="M4419.79 319.905C4419.79 253.989 4452.35 211.633 4518.27 211.633C4584.18 211.633 4617.27 253.989 4617.27 319.905V542.272C4617.27 607.659 4584.45 650.544 4518.27 650.544C4452.09 650.544 4419.79 607.659 4419.79 542.272V319.905ZM4467.18 544.92C4467.18 584.099 4483.85 606.865 4518.27 606.865C4552.68 606.865 4569.1 584.099 4569.1 544.92V317.257C4569.1 278.608 4553.21 255.312 4518.27 255.312C4483.32 255.312 4467.18 278.608 4467.18 317.257V544.92Z" fill="#263238"/>
        <path d="M4756.78 215.868C4824.29 215.868 4853.14 255.841 4853.14 321.758V374.702C4853.14 443.001 4821.38 478.739 4753.08 478.739H4710.46V648.426H4662.54V215.868H4756.78ZM4753.08 432.412C4788.55 432.412 4806.02 415.999 4806.02 374.702V318.581C4806.02 279.137 4791.99 259.548 4757.05 259.548H4710.72V432.412H4753.08Z" fill="#263238"/>
        <path d="M5078.95 319.111V330.759H5033.42V316.728C5033.42 278.079 5018.6 255.312 4984.18 255.312C4949.77 255.312 4934.94 278.079 4934.94 316.199C4934.94 412.558 5079.48 422.088 5079.48 543.067C5079.48 608.189 5047.98 650.544 4982.33 650.544C4916.68 650.544 4885.7 608.189 4885.7 543.067V518.447H4930.71V544.92C4930.71 583.569 4946.59 606.336 4981 606.336C5015.42 606.336 5031.57 583.569 5031.57 544.92C5031.57 449.09 4887.56 439.03 4887.56 318.581C4887.56 252.136 4918.27 211.104 4982.86 211.104C5047.45 211.104 5078.95 253.989 5078.95 319.111Z" fill="#263238"/>
        <rect x="2043.13" y="20.6826" width="6386.4" height="804.814" rx="156" stroke="#383749" stroke-width="8" stroke-linejoin="round"/>
    </g>
    <path d="M9039.53 816.683C9260.44 816.683 9439.53 637.596 9439.53 416.683C9439.53 195.769 9260.44 16.6826 9039.53 16.6826C8818.61 16.6826 8639.53 195.769 8639.53 416.683C8639.53 637.596 8818.61 816.683 9039.53 816.683Z" fill="#263238"/>
    <g clip-path="url(#clip0_2890_33695)">
        <path d="M9161.31 390.713C9161.35 362.174 9152.92 334.264 9137.09 310.515C9121.27 286.766 9098.75 268.245 9072.4 257.296C9046.04 246.347 9017.03 243.461 8989.04 249.004C8961.04 254.547 8935.32 268.269 8915.13 288.435C8894.93 308.601 8881.17 334.304 8875.59 362.291C8870.01 390.279 8872.85 419.294 8883.76 445.664C8894.68 472.034 8913.16 494.576 8936.89 510.435C8960.62 526.295 8988.52 534.76 9017.05 534.76C9055.28 534.76 9091.94 519.59 9118.98 492.582C9146.03 465.574 9161.25 428.935 9161.31 390.713Z" stroke="white" stroke-width="64" stroke-linecap="round" stroke-linejoin="round"/>
        <path d="M9115.81 504.358L9206.81 587.808" stroke="white" stroke-width="64" stroke-linecap="round" stroke-linejoin="round"/>
    </g>
    <path opacity="0.2" d="M1637.04 3015.8L3132.73 3258.02L5576.66 2921.03L7398.75 3404.94L9236.72 2994.88L10940.7 6254.16L8194.51 6902.2L5559.19 6630.6L2479.13 6921L537.648 6146.68L1637.04 3015.8Z" fill="black"/>
    <path d="M1214.02 1681.06L2863.77 1948.17L5559.98 1576.5L7569.76 2110.18L9597.28 1657.77L11477.3 5253.5L8447.85 5968.26L5540.66 5668.59L2142.93 5988.91L1.31836 5134.91L1214.02 1681.06Z" fill="white" stroke="#263238" stroke-linecap="round" stroke-linejoin="round"/>
    <path d="M1527.71 1913.23L2816.39 2145.39L5545.16 1797.28L7611.85 2284.9L9400.06 1878.55L10933.1 5122.2L8346.46 5765.48L5559.45 5498.11L2166.23 5733.45L545.325 5014.72L1527.71 1913.23Z" fill="#FF725E" stroke="#263238" stroke-linecap="round" stroke-linejoin="round"/>
    <g opacity="0.64">
        <path d="M8867.7 3347.76L7868.63 3609.31H7564.73C7564.73 3609.31 7955.73 3985.75 8708.34 4058.01C9460.94 4130.28 9634.87 3985.75 9634.87 3985.75L8867.7 3347.76Z" fill="white"/>
        <path d="M4524.65 2030.5L3858.6 2175.3L3771.77 2406.93L4191.63 2320.11L4090.24 2841.08L4582.62 2783.37L4669.45 2189.6L4524.65 2030.5Z" fill="white"/>
        <path d="M4104.8 2927.91L4061.38 3188.66L4350.99 3130.69V2913.62L4104.8 2927.91Z" fill="white"/>
        <path d="M3931.14 2927.91L3873.16 3217.52L3308.51 3290.05L3323.07 3087.27L3931.14 2927.91Z" fill="white"/>
        <path d="M7267.45 4216.58C6991.6 4216.58 6767.91 4359.01 6767.91 4534.25C6767.91 4709.5 6991.6 4851.92 7267.45 4851.92C7543.29 4851.92 7766.98 4709.23 7766.98 4534.25C7766.98 4359.27 7543.82 4216.58 7267.45 4216.58ZM7267.45 4679.58C7141.97 4679.58 7040.31 4614.99 7040.31 4535.05C7040.31 4455.1 7141.97 4390.24 7267.45 4390.24C7392.93 4390.24 7495.11 4456.42 7495.11 4535.84C7495.11 4615.26 7393.45 4679.58 7267.45 4679.58Z" fill="white"/>
        <path d="M3308.51 5360.19L3699.5 4404.54L2830.95 4448.22L2700.44 4780.97H3105.73L2801.83 5475.87L3308.51 5360.19Z" fill="white"/>
        <path d="M4987.91 3275.49L5566.86 3145.25L6319.74 3376.88L5740.52 3478.01L5581.42 3347.76L4987.91 3463.71V3275.49Z" fill="white"/>
        <path d="M5016.77 2725.4L5031.33 3101.83L5291.82 3043.86L5248.4 2710.84L5016.77 2725.4Z" fill="white"/>
        <path d="M1412.03 2927.91L1180.4 3593.95L2121.49 3840.15L2266.29 3318.91L1861 2942.47L1412.03 2927.91Z" fill="white"/>
    </g>
    <path d="M10735.3 4703.41L10360.7 4332.8C10425.3 4324.59 10487.8 4315.59 10547.6 4306.32L10500.8 4206.79C10425.9 4217.91 10347.2 4228.5 10265.2 4238.03L9148.57 3132.81C9445.33 3088.6 9727.26 3050.48 9942.74 3028.24L9894.83 2927.12C9661.87 2952 9365.38 2993.03 9059.89 3039.09L9063.06 3019.77L9027.33 3014.21L8633.68 2624.54L9517.59 2125L9472.33 2029.17L8556.38 2546.97L8164.59 2159.42L8042.29 2185.89L8850.49 2985.35L6280.03 2583.24C6267.59 2554.91 6255.14 2526.59 6243.76 2497.47C6170.27 2310.88 6113.22 2118.22 6073.28 1921.7L5959.45 1895.22C6001.27 2113.18 6063.31 2326.76 6144.75 2533.21L6157.46 2564.18L5555.22 2469.67L4933.64 2523.94L4911.41 1878.02L4805.52 1891.52L4863.49 3658.55C4827.49 3658.55 4791.49 3658.55 4757.6 3656.96C3779.45 3628.63 2722.94 3343.26 2566.49 3258.02C2460.6 3199.52 2222.35 2923.94 2095.54 2767.49C2354.71 2753.99 2605.4 2719.04 2753.65 2642.01C2956.96 2536.12 3437.96 2256.84 3851.19 2013.29L3584.35 2047.44C3231.47 2254.19 2872.77 2461.2 2705.2 2548.03C2405.27 2703.69 1602.1 2671.39 1293.7 2652.33L1260.61 2756.63C1375.5 2764.31 1576.16 2774.9 1798.53 2774.9C1851.47 2774.9 1908.39 2774.9 1964.24 2772.78C2003.95 2823.08 2352.06 3261.46 2515.93 3350.94C2679.79 3440.41 3743.45 3733.46 4754.69 3762.58C4791.93 3763.64 4829.78 3764.17 4868.26 3764.17L4876.2 4005.86L4066.94 4029.42L4054.76 4025.19L4053.17 4029.69L2445.77 4076.54L961.735 3700.64L929.703 3801.76L1843.79 4032.87L996.678 5214.33L1095.68 5258.01L1954.98 4060.93L2435.19 4182.43L4016.38 4136.37L3556.02 5435.9L3015.19 5674.15L3327.04 5652.71L5559.19 4670.05L7152.03 3816.85C7333.31 3937.72 7528.95 4035.54 7734.42 4108.05C7920.83 4173.4 8111.2 4226.89 8304.37 4268.2L8070.88 4735.44L7108.61 5647.68L7248.39 5660.91L8150.56 4805.86L8157.18 4799.5L8411.85 4290.18C8679.93 4341 8951.38 4372.15 9224.02 4383.36L9009.59 5601.09L9122.1 5573.29L9332.29 4386.27C9387.62 4387.59 9442.41 4388.65 9496.68 4388.65C9740.5 4388.39 9984.13 4375.05 10226.5 4348.68L10867.9 4984.02L10735.3 4703.41ZM3688.92 5377.92L4128.89 4133.72L4879.64 4112.28L4903.73 4843.71L3688.92 5377.92ZM8781.13 3083.3C8166.98 3180.19 7580.61 3285.02 7453.02 3310.44L7347.13 3331.88C7233.83 3355.44 7057.26 3392.23 6842.83 3432.47C6631.5 3218.97 6458.41 2970.76 6331.12 2698.66L8781.13 3083.3ZM4937.88 2629.83L5550.71 2576.89L6205.64 2679.6C6333.54 2965.19 6508.08 3227.49 6722.12 3455.77C6362.09 3521.15 5917.36 3591.57 5484 3629.96L5479.5 3623.34L5467.33 3631.54C5297.9 3646.1 5130.6 3655.9 4970.71 3658.02L4937.88 2629.83ZM4974.94 3762.85C5077.65 3761.26 5183.54 3756.49 5290.76 3749.61L4981.56 3958.21L4974.94 3762.85ZM5515.51 4573.43L5008.83 4796.33L4985.53 4083.43L5504.39 3733.2C5968.18 3691.37 6442.83 3614.07 6813.97 3545.24C6890.15 3617.98 6970.88 3685.8 7055.67 3748.29L5515.51 4573.43ZM7770.42 4006.39C7464.2 3900.86 7181.75 3736.07 6939.19 3521.42C7120.52 3486.74 7269.56 3455.77 7369.63 3434.86L7473.67 3413.41C7662.68 3375.56 8357.84 3254.58 9017.8 3152.66L10129.6 4252.06C9461.21 4316.38 8603.51 4300.77 7770.42 4006.39Z" fill="white" stroke="#263238" stroke-linecap="round" stroke-linejoin="round"/>
    <path d="M2324.27 4822.01L2154.58 5814.72" stroke="#263238" stroke-linecap="round" stroke-linejoin="round"/>
    <path d="M2793.36 2075.77L2358.68 4620.29" stroke="#263238" stroke-linecap="round" stroke-linejoin="round"/>
    <path d="M5538.01 1682.92L5552.57 2710.84" stroke="#263238" stroke-linecap="round" stroke-linejoin="round"/>
    <path d="M7680.15 2902.5L8274.19 5403.6" stroke="#263238" stroke-linecap="round" stroke-linejoin="round"/>
    <path d="M7521.32 2233.01L7651.82 2783.11" stroke="#263238" stroke-linecap="round" stroke-linejoin="round"/>
    <path d="M5566.86 5591.82L5552.57 4983.75" stroke="#263238" stroke-linecap="round" stroke-linejoin="round"/>
    <path d="M1896.21 2674.14C1863.89 2674.14 1831.89 2680.51 1802.04 2692.89C1772.18 2705.26 1745.06 2723.4 1722.22 2746.27C1699.38 2769.13 1681.27 2796.27 1668.93 2826.14C1656.58 2856.01 1650.25 2888.02 1650.28 2920.34C1650.28 3056.14 1896.21 3309.48 1896.21 3309.48C1896.21 3309.48 2142.4 3056.14 2142.4 2920.34C2142.4 2855.04 2116.46 2792.42 2070.29 2746.25C2024.12 2700.08 1961.5 2674.14 1896.21 2674.14ZM1896.21 3018.28C1879.71 3018.28 1863.57 3013.39 1849.85 3004.21C1836.13 2995.04 1825.45 2982 1819.14 2966.74C1812.84 2951.49 1811.2 2934.71 1814.44 2918.53C1817.68 2902.35 1825.65 2887.49 1837.34 2875.84C1849.03 2864.19 1863.91 2856.26 1880.1 2853.08C1896.3 2849.89 1913.07 2851.58 1928.3 2857.93C1943.54 2864.28 1956.54 2875.01 1965.67 2888.76C1974.8 2902.51 1979.65 2918.66 1979.6 2935.16C1979.46 2957.18 1970.61 2978.26 1954.99 2993.78C1939.36 3009.31 1918.23 3018.02 1896.21 3018.02V3018.28Z" fill="#263238" stroke="#263238" stroke-linecap="round" stroke-linejoin="round"/>
    <path d="M4450.79 1535.83C4418.47 1535.83 4386.47 1542.2 4356.62 1554.58C4326.76 1566.95 4299.64 1585.09 4276.8 1607.96C4253.96 1630.82 4235.85 1657.96 4223.51 1687.83C4211.16 1717.7 4204.83 1749.71 4204.86 1782.02C4204.86 1917.83 4450.79 2171.17 4450.79 2171.17C4450.79 2171.17 4696.98 1917.83 4696.98 1782.02C4696.98 1716.73 4671.04 1654.11 4624.87 1607.94C4578.7 1561.77 4516.08 1535.83 4450.79 1535.83ZM4450.79 1879.97C4434.29 1879.97 4418.15 1875.08 4404.43 1865.9C4390.72 1856.73 4380.03 1843.69 4373.72 1828.43C4367.42 1813.18 4365.79 1796.4 4369.02 1780.22C4372.26 1764.04 4380.23 1749.18 4391.92 1737.53C4403.61 1725.88 4418.49 1717.95 4434.68 1714.77C4450.88 1711.58 4467.65 1713.27 4482.88 1719.62C4498.12 1725.97 4511.12 1736.7 4520.25 1750.45C4529.38 1764.2 4534.23 1780.35 4534.18 1796.85C4534.04 1818.87 4525.19 1839.95 4509.57 1855.47C4493.94 1871 4472.81 1879.71 4450.79 1879.71V1879.97Z" fill="#263238" stroke="#263238" stroke-linecap="round" stroke-linejoin="round"/>
    <path d="M4034.12 3269.51C4001.8 3269.47 3969.79 3275.81 3939.92 3288.15C3910.05 3300.49 3882.91 3318.6 3860.05 3341.44C3837.18 3364.28 3819.04 3391.41 3806.67 3421.26C3794.29 3451.11 3787.92 3483.12 3787.92 3515.43C3787.92 3651.5 4034.12 3904.58 4034.12 3904.58C4034.12 3904.58 4280.04 3651.5 4280.04 3515.43C4280.04 3450.21 4254.13 3387.66 4208.01 3341.54C4161.89 3295.42 4099.34 3269.51 4034.12 3269.51ZM4034.12 3613.65C4017.7 3613.65 4001.65 3608.78 3987.99 3599.67C3974.33 3590.56 3963.68 3577.61 3957.37 3562.45C3951.06 3547.3 3949.39 3530.61 3952.55 3514.5C3955.72 3498.39 3963.58 3483.58 3975.15 3471.93C3986.73 3460.29 4001.49 3452.33 4017.58 3449.06C4033.67 3445.8 4050.36 3447.37 4065.56 3453.58C4080.76 3459.79 4093.78 3470.36 4102.97 3483.96C4112.17 3497.56 4117.13 3513.58 4117.24 3529.99C4117.24 3552.04 4108.48 3573.18 4092.89 3588.77C4077.3 3604.36 4056.16 3613.12 4034.12 3613.12V3613.65Z" fill="#263238" stroke="#263238" stroke-linecap="round" stroke-linejoin="round"/>
    <path d="M8971.21 3110.67C8938.89 3110.64 8906.88 3116.97 8877.01 3129.32C8847.14 3141.66 8820 3159.77 8797.14 3182.61C8774.27 3205.45 8756.14 3232.57 8743.76 3262.43C8731.38 3292.28 8725.01 3324.28 8725.01 3356.6C8725.01 3492.67 8971.21 3745.74 8971.21 3745.74C8971.21 3745.74 9217.13 3492.67 9217.13 3356.6C9217.13 3291.38 9191.22 3228.82 9145.1 3182.7C9098.98 3136.58 9036.43 3110.67 8971.21 3110.67ZM8971.21 3454.81C8954.79 3454.81 8938.74 3449.95 8925.08 3440.84C8911.42 3431.73 8900.77 3418.78 8894.46 3403.62C8888.16 3388.46 8886.48 3371.78 8889.64 3355.67C8892.81 3339.56 8900.67 3324.75 8912.25 3313.1C8923.82 3301.45 8938.58 3293.5 8954.67 3290.23C8970.76 3286.96 8987.45 3288.53 9002.65 3294.74C9017.85 3300.95 9030.87 3311.52 9040.06 3325.12C9049.26 3338.72 9054.23 3354.74 9054.33 3371.16C9054.33 3393.21 9045.57 3414.35 9029.98 3429.94C9014.4 3445.53 8993.25 3454.28 8971.21 3454.28V3454.81Z" fill="#263238" stroke="#263238" stroke-linecap="round" stroke-linejoin="round"/>
    <path d="M6151.9 3891.61C6119.58 3891.57 6087.58 3897.91 6057.71 3910.25C6027.84 3922.59 6000.7 3940.7 5977.83 3963.54C5954.97 3986.38 5936.83 4013.51 5924.45 4043.36C5912.08 4073.21 5905.71 4105.22 5905.71 4137.53C5905.71 4273.6 6151.9 4526.68 6151.9 4526.68C6151.9 4526.68 6397.83 4273.6 6397.83 4137.53C6397.83 4105.24 6391.47 4073.26 6379.11 4043.42C6366.75 4013.58 6348.64 3986.47 6325.8 3963.64C6302.96 3940.8 6275.85 3922.68 6246.01 3910.33C6216.18 3897.97 6184.2 3891.61 6151.9 3891.61ZM6151.9 4235.75C6135.48 4235.75 6119.44 4230.88 6105.78 4221.77C6092.12 4212.66 6081.46 4199.71 6075.16 4184.55C6068.85 4169.4 6067.18 4152.71 6070.34 4136.6C6073.5 4120.49 6081.37 4105.68 6092.94 4094.03C6104.51 4082.39 6119.27 4074.43 6135.36 4071.16C6151.45 4067.9 6168.15 4069.47 6183.35 4075.68C6198.54 4081.89 6211.56 4092.46 6220.76 4106.06C6229.96 4119.66 6234.92 4135.68 6235.03 4152.09C6235.03 4174.14 6226.27 4195.28 6210.68 4210.87C6195.09 4226.46 6173.95 4235.22 6151.9 4235.22V4235.75Z" fill="#263238" stroke="#263238" stroke-linecap="round" stroke-linejoin="round"/>
    <path d="M7184.32 1760.58C7152.01 1760.55 7120 1766.88 7090.13 1779.23C7060.26 1791.57 7033.12 1809.68 7010.26 1832.52C6987.39 1855.36 6969.25 1882.48 6956.88 1912.34C6944.5 1942.19 6938.13 1974.19 6938.13 2006.51C6938.13 2142.58 7184.32 2395.65 7184.32 2395.65C7184.32 2395.65 7430.25 2142.58 7430.25 2006.51C7430.25 1941.29 7404.34 1878.73 7358.22 1832.61C7312.1 1786.49 7249.55 1760.58 7184.32 1760.58ZM7184.32 2104.72C7167.91 2104.72 7151.86 2099.86 7138.2 2090.75C7124.54 2081.64 7113.89 2068.69 7107.58 2053.53C7101.27 2038.37 7099.6 2021.69 7102.76 2005.58C7105.93 1989.47 7113.79 1974.66 7125.36 1963.01C7136.93 1951.36 7151.7 1943.41 7167.79 1940.14C7183.87 1936.87 7200.57 1938.44 7215.77 1944.65C7230.97 1950.86 7243.98 1961.43 7253.18 1975.03C7262.38 1988.63 7267.34 2004.65 7267.45 2021.07C7267.45 2043.12 7258.69 2064.26 7243.1 2079.85C7227.51 2095.44 7206.37 2104.19 7184.32 2104.19V2104.72Z" fill="#263238" stroke="#263238" stroke-linecap="round" stroke-linejoin="round"/>
    <defs>
        <filter id="filter0_dd_2890_33695" x="2015.13" y="0.682617" width="6442.4" height="860.814" filterUnits="userSpaceOnUse" color-interpolation-filters="sRGB">
            <feFlood flood-opacity="0" result="BackgroundImageFix"/>
            <feColorMatrix in="SourceAlpha" type="matrix" values="0 0 0 0 0 0 0 0 0 0 0 0 0 0 0 0 0 0 127 0" result="hardAlpha"/>
            <feOffset dy="8"/>
            <feGaussianBlur stdDeviation="12"/>
            <feColorMatrix type="matrix" values="0 0 0 0 0.415686 0 0 0 0 0.45098 0 0 0 0 0.490196 0 0 0 0.16 0"/>
            <feBlend mode="normal" in2="BackgroundImageFix" result="effect1_dropShadow_2890_33695"/>
            <feColorMatrix in="SourceAlpha" type="matrix" values="0 0 0 0 0 0 0 0 0 0 0 0 0 0 0 0 0 0 127 0" result="hardAlpha"/>
            <feOffset/>
            <feGaussianBlur stdDeviation="1"/>
            <feColorMatrix type="matrix" values="0 0 0 0 0.415686 0 0 0 0 0.45098 0 0 0 0 0.490196 0 0 0 0.24 0"/>
            <feBlend mode="normal" in2="effect1_dropShadow_2890_33695" result="effect2_dropShadow_2890_33695"/>
            <feBlend mode="normal" in="SourceGraphic" in2="effect2_dropShadow_2890_33695" result="shape"/>
        </filter>
        <clipPath id="clip0_2890_33695">
            <rect width="399" height="406" fill="white" transform="translate(8840.34 214)"/>
        </clipPath>
    </defs>
</svg>
