<svg width="24" height="24" viewBox="0 0 24 24" fill="none" xmlns="http://www.w3.org/2000/svg">
<path fill-rule="evenodd" clip-rule="evenodd" d="M10 8.75C9.30964 8.75 8.75 9.30964 8.75 10V18C8.75 18.6904 9.30964 19.25 10 19.25H18C18.6904 19.25 19.25 18.6904 19.25 18V10C19.25 9.30964 18.6904 8.75 18 8.75H10ZM7.25 10C7.25 8.48122 8.48122 7.25 10 7.25H18C19.5188 7.25 20.75 8.48122 20.75 10V18C20.75 19.5188 19.5188 20.75 18 20.75H10C8.48122 20.75 7.25 19.5188 7.25 18V10Z" fill="#111827"/>
<path fill-rule="evenodd" clip-rule="evenodd" d="M4.05546 4.05546C4.57118 3.53973 5.27065 3.25 6 3.25H14C14.7293 3.25 15.4288 3.53973 15.9445 4.05546C16.4603 4.57118 16.75 5.27065 16.75 6V8C16.75 8.41421 16.4142 8.75 16 8.75C15.5858 8.75 15.25 8.41421 15.25 8V6C15.25 5.66848 15.1183 5.35054 14.8839 5.11612C14.6495 4.8817 14.3315 4.75 14 4.75H6C5.66848 4.75 5.35054 4.8817 5.11612 5.11612C4.8817 5.35054 4.75 5.66848 4.75 6V14C4.75 14.3315 4.8817 14.6495 5.11612 14.8839C5.35054 15.1183 5.66848 15.25 6 15.25H8C8.41421 15.25 8.75 15.5858 8.75 16C8.75 16.4142 8.41421 16.75 8 16.75H6C5.27065 16.75 4.57118 16.4603 4.05546 15.9445C3.53973 15.4288 3.25 14.7293 3.25 14V6C3.25 5.27065 3.53973 4.57118 4.05546 4.05546Z" fill="#111827"/>
</svg>
