<svg width="12" height="12" viewBox="0 0 12 12" fill="none" xmlns="http://www.w3.org/2000/svg">
<g clip-path="url(#clip0_1695_24339)">
<path d="M1.40699 7.73347L0.773661 10.4668C0.751814 10.5667 0.752563 10.6703 0.775854 10.7698C0.799145 10.8694 0.844389 10.9626 0.908283 11.0424C0.972176 11.1223 1.0531 11.1869 1.14515 11.2315C1.2372 11.2761 1.33805 11.2995 1.44033 11.3001C1.48798 11.3049 1.536 11.3049 1.58366 11.3001L4.33366 10.6668L9.61366 5.4068L6.667 2.4668L1.40699 7.73347Z" fill="#FEFAFA"/>
<path d="M11.274 2.773L9.30714 0.806331C9.17783 0.677686 9.00283 0.605469 8.82042 0.605469C8.638 0.605469 8.46301 0.677686 8.33369 0.806331L7.24023 1.89966L10.1839 4.843L11.2774 3.74966C11.3414 3.68536 11.392 3.60907 11.4265 3.52515C11.461 3.44124 11.4786 3.35135 11.4782 3.26064C11.4779 3.16993 11.4597 3.08016 11.4247 2.99649C11.3897 2.91281 11.3385 2.83687 11.274 2.773Z" fill="#FEFAFA"/>
</g>
<defs>
<clipPath id="clip0_1695_24339">
<rect width="12" height="12" fill="white"/>
</clipPath>
</defs>
</svg>
