<svg width="24" height="24" viewBox="0 0 24 24" fill="none" xmlns="http://www.w3.org/2000/svg">
<path fill-rule="evenodd" clip-rule="evenodd" d="M11.9998 9.16998C10.4341 9.16998 9.16984 10.4342 9.16984 12C9.16984 12.5104 9.30377 12.9865 9.54014 13.399L13.3989 9.54027C12.9863 9.30391 12.5102 9.16998 11.9998 9.16998ZM7.66984 12C7.66984 9.60577 9.60563 7.66998 11.9998 7.66998C13.1977 7.66998 14.2759 8.15542 15.0602 8.93965C15.3531 9.23254 15.3531 9.70742 15.0602 10.0003L10.0002 15.0603C9.70728 15.3532 9.23241 15.3532 8.93951 15.0603C8.15528 14.2761 7.66984 13.1978 7.66984 12Z" fill="#111827"/>
<path fill-rule="evenodd" clip-rule="evenodd" d="M2.25734 9.00695C4.64826 5.24858 8.15186 2.97998 11.9998 2.97998C14.2495 2.97998 16.4053 3.76359 18.2715 5.17121C18.6022 5.42065 18.668 5.89093 18.4186 6.22162C18.1692 6.55231 17.6989 6.61818 17.3682 6.36875C15.7344 5.13637 13.8902 4.47998 11.9998 4.47998C8.78799 4.47998 5.71174 6.37118 3.52266 9.81252L3.52204 9.81351C3.16745 10.369 2.96484 11.1642 2.96484 12.005C2.96484 12.8457 3.16745 13.6409 3.52204 14.1965C4.27581 15.3796 5.14895 16.393 6.08887 17.2013C6.40292 17.4714 6.43857 17.945 6.16848 18.259C5.8984 18.5731 5.42486 18.6087 5.11081 18.3386C4.05073 17.427 3.08354 16.2998 2.25731 15.003C1.71213 14.1486 1.46484 13.054 1.46484 12.005C1.46484 10.9559 1.71214 9.86136 2.25734 9.00695Z" fill="#111827"/>
<path fill-rule="evenodd" clip-rule="evenodd" d="M19.5798 7.34557C19.9025 7.08596 20.3746 7.13715 20.6343 7.45991C21.0181 7.93718 21.3953 8.45003 21.7431 8.99811C22.2878 9.85235 22.5348 10.9464 22.5348 11.995C22.5348 13.044 22.2875 14.1386 21.7423 14.993C19.3514 18.7514 15.8478 21.02 11.9998 21.02C10.6633 21.02 9.35467 20.7374 8.1288 20.2212C7.74705 20.0605 7.56788 19.6207 7.72862 19.2389C7.88936 18.8572 8.32913 18.678 8.71089 18.8388C9.76502 19.2826 10.8764 19.52 11.9998 19.52C15.2117 19.52 18.2879 17.6288 20.477 14.1874L20.4777 14.1865C20.8322 13.6309 21.0348 12.8357 21.0348 11.995C21.0348 11.1542 20.8322 10.359 20.4777 9.80351L20.4766 9.80185C20.1644 9.30993 19.8215 8.84278 19.4654 8.40005C19.2058 8.07729 19.257 7.60518 19.5798 7.34557Z" fill="#111827"/>
<path fill-rule="evenodd" clip-rule="evenodd" d="M15.6458 11.9624C16.0532 12.0375 16.3225 12.4286 16.2474 12.836C15.931 14.5518 14.5417 15.9411 12.8258 16.2575C12.4185 16.3327 12.0274 16.0633 11.9523 15.656C11.8772 15.2486 12.1465 14.8575 12.5538 14.7824C13.658 14.5788 14.5687 13.6681 14.7723 12.564C14.8474 12.1566 15.2385 11.8873 15.6458 11.9624Z" fill="#111827"/>
<path fill-rule="evenodd" clip-rule="evenodd" d="M9.53017 14.4697C9.82307 14.7625 9.82307 15.2374 9.53017 15.5303L4.53017 20.5303C4.23728 20.8232 3.76241 20.8232 3.46951 20.5303C3.17662 20.2374 3.17662 19.7625 3.46951 19.4697L8.46951 14.4697C8.76241 14.1768 9.23728 14.1768 9.53017 14.4697Z" fill="#111827"/>
<path fill-rule="evenodd" clip-rule="evenodd" d="M20.5302 3.46965C20.8231 3.76254 20.8231 4.23742 20.5302 4.53031L15.5302 9.53031C15.2373 9.8232 14.7624 9.8232 14.4695 9.53031C14.1766 9.23742 14.1766 8.76254 14.4695 8.46965L19.4695 3.46965C19.7624 3.17676 20.2373 3.17676 20.5302 3.46965Z" fill="#111827"/>
</svg>
