<svg width="24" height="24" viewBox="0 0 24 24" fill="none" xmlns="http://www.w3.org/2000/svg">
<path fill-rule="evenodd" clip-rule="evenodd" d="M11.9998 9.16997C10.4341 9.16997 9.16984 10.4342 9.16984 12C9.16984 13.5658 10.4341 14.83 11.9998 14.83C13.5656 14.83 14.8298 13.5658 14.8298 12C14.8298 10.4342 13.5656 9.16997 11.9998 9.16997ZM7.66984 12C7.66984 9.60576 9.60563 7.66997 11.9998 7.66997C14.3941 7.66997 16.3298 9.60576 16.3298 12C16.3298 14.3942 14.3941 16.33 11.9998 16.33C9.60563 16.33 7.66984 14.3942 7.66984 12Z" fill="#111827"/>
<path fill-rule="evenodd" clip-rule="evenodd" d="M2.25734 8.99693C4.64826 5.23857 8.15186 2.96997 11.9998 2.96997C15.848 2.96997 19.3517 5.23877 21.7427 8.99743C22.2876 9.85177 22.5348 10.9461 22.5348 11.995C22.5348 13.0438 22.2876 14.1382 21.7427 14.9925C19.3517 18.7512 15.848 21.02 11.9998 21.02C8.1517 21.02 4.64795 18.7512 2.25703 14.9925C1.71205 14.1382 1.46484 13.0438 1.46484 11.995C1.46484 10.9459 1.71214 9.85135 2.25734 8.99693ZM11.9998 4.46997C8.78799 4.46997 5.71174 6.36117 3.52266 9.80251L3.52204 9.8035C3.16745 10.359 2.96484 11.1542 2.96484 11.995C2.96484 12.8357 3.16745 13.6309 3.52204 14.1864L3.52266 14.1874C5.71174 17.6288 8.78799 19.52 11.9998 19.52C15.2117 19.52 18.288 17.6288 20.477 14.1874L20.4777 14.1864C20.8322 13.6309 21.0348 12.8357 21.0348 11.995C21.0348 11.1542 20.8322 10.359 20.4777 9.8035L20.477 9.80251C18.288 6.36117 15.2117 4.46997 11.9998 4.46997Z" fill="#111827"/>
</svg>
