<svg width="25" height="24" viewBox="0 0 25 24" fill="none" xmlns="http://www.w3.org/2000/svg">
<path d="M20.3915 9.723C21.3395 9.189 21.8145 8.922 22.0735 8.491C22.3335 8.061 22.3335 7.542 22.3335 6.504V5.814C22.3335 4.488 22.3335 3.824 21.8935 3.412C21.4555 3 20.7485 3 19.3335 3H5.3335C3.9195 3 3.2125 3 2.7735 3.412C2.3335 3.824 2.3335 4.488 2.3335 5.815V6.505C2.3335 7.542 2.3335 8.061 2.5935 8.491C2.8535 8.921 3.3265 9.189 4.2755 9.723L7.1885 11.363C7.8245 11.721 8.1435 11.9 8.3715 12.098C8.8455 12.509 9.1375 12.993 9.2695 13.588C9.3335 13.872 9.3335 14.206 9.3335 14.873V17.543C9.3335 18.452 9.3335 18.907 9.5855 19.261C9.8375 19.616 10.2855 19.791 11.1795 20.141C13.0585 20.875 13.9975 21.242 14.6655 20.824C15.3335 20.407 15.3335 19.452 15.3335 17.542V14.872C15.3335 14.206 15.3335 13.872 15.3975 13.587C15.5231 13.0042 15.8394 12.4798 16.2965 12.097" stroke="#24292E" stroke-width="1.5" stroke-linecap="round"/>
</svg>
