<svg width="24" height="24" viewBox="0 0 24 24" fill="none" xmlns="http://www.w3.org/2000/svg">
<path fill-rule="evenodd" clip-rule="evenodd" d="M15.3431 2.2288C15.496 2.59883 15.5595 3.04155 15.5595 3.5199V9.9699H17.8995C18.6935 9.9699 19.5502 10.2128 19.8955 10.9775C20.241 11.7424 19.8558 12.5442 19.3316 13.1364L19.3309 13.1372L11.7624 21.7354C11.4464 22.0942 11.1062 22.3846 10.7473 22.5616C10.3852 22.7402 9.94565 22.8283 9.5096 22.6646C9.07314 22.5007 8.80024 22.1447 8.64583 21.771C8.49293 21.401 8.42946 20.9583 8.42946 20.4799V14.0299H6.08946C5.30096 14.0299 4.4471 13.7899 4.10135 13.027C3.75636 12.2658 4.13563 11.4644 4.65305 10.8683L4.65648 10.8643L12.2265 2.26436C12.5425 1.90563 12.8827 1.6152 13.2416 1.4382C13.6037 1.25963 14.0433 1.17155 14.4793 1.33526C14.9158 1.49912 15.1887 1.85513 15.3431 2.2288ZM13.3524 3.25545C13.5913 2.98433 13.7812 2.84459 13.9051 2.78348C13.9187 2.77677 13.9307 2.77134 13.9413 2.76696C13.9461 2.77681 13.9513 2.7883 13.9568 2.80163C14.0092 2.92847 14.0595 3.15826 14.0595 3.5199V10.7199C14.0595 11.1341 14.3952 11.4699 14.8095 11.4699H17.8995C18.1814 11.4699 18.3591 11.5143 18.4563 11.5575C18.4927 11.5737 18.5136 11.5875 18.5247 11.5964C18.5239 11.6104 18.5204 11.6346 18.5088 11.6716C18.4772 11.772 18.3936 11.9331 18.208 12.1426L18.2065 12.1444L10.6367 20.7441C10.3977 21.0154 10.2077 21.1552 10.0838 21.2163C10.0702 21.223 10.0582 21.2285 10.0477 21.2328C10.0429 21.223 10.0377 21.2115 10.0321 21.1982C9.97974 21.0713 9.92946 20.8415 9.92946 20.4799V13.2799C9.92946 12.8657 9.59367 12.5299 9.17946 12.5299H6.08946C5.80958 12.5299 5.63368 12.486 5.53767 12.4434C5.50248 12.4278 5.48211 12.4145 5.47113 12.4059C5.47178 12.3916 5.47518 12.3667 5.487 12.3284C5.51836 12.2269 5.60116 12.0647 5.78429 11.8533L13.3524 3.25545Z" fill="#111827"/>
</svg>
