<svg width="24" height="24" viewBox="0 0 24 24" fill="none" xmlns="http://www.w3.org/2000/svg">
<path fill-rule="evenodd" clip-rule="evenodd" d="M12 2.75C6.89137 2.75 2.75 6.89137 2.75 12C2.75 17.1086 6.89137 21.25 12 21.25C17.1086 21.25 21.25 17.1086 21.25 12C21.25 6.89137 17.1086 2.75 12 2.75ZM1.25 12C1.25 6.06294 6.06294 1.25 12 1.25C17.9371 1.25 22.75 6.06294 22.75 12C22.75 17.9371 17.9371 22.75 12 22.75C6.06294 22.75 1.25 17.9371 1.25 12Z" fill="#111827"/>
<path fill-rule="evenodd" clip-rule="evenodd" d="M7.25 3C7.25 2.58579 7.58579 2.25 8 2.25H9C9.24115 2.25 9.46759 2.36596 9.60854 2.56162C9.7495 2.75729 9.78777 3.0088 9.71139 3.23754C7.81287 8.92336 7.81287 15.0766 9.71139 20.7625C9.78777 20.9912 9.7495 21.2427 9.60854 21.4384C9.46759 21.634 9.24115 21.75 9 21.75H8C7.58579 21.75 7.25 21.4142 7.25 21C7.25 20.593 7.57414 20.2618 7.97833 20.2503C6.39056 14.8661 6.39056 9.13389 7.97833 3.74969C7.57414 3.73823 7.25 3.40697 7.25 3Z" fill="#111827"/>
<path fill-rule="evenodd" clip-rule="evenodd" d="M14.7625 2.28861C15.1554 2.15742 15.5802 2.36957 15.7114 2.76246C17.7129 8.75664 17.7129 15.2434 15.7114 21.2375C15.5802 21.6304 15.1554 21.8426 14.7625 21.7114C14.3696 21.5802 14.1574 21.1554 14.2886 20.7625C16.1871 15.0766 16.1871 8.92336 14.2886 3.23754C14.1574 2.84465 14.3696 2.4198 14.7625 2.28861Z" fill="#111827"/>
<path fill-rule="evenodd" clip-rule="evenodd" d="M2.56162 14.3915C2.75729 14.2505 3.0088 14.2122 3.23754 14.2886C8.92336 16.1871 15.0766 16.1871 20.7625 14.2886C20.9912 14.2122 21.2427 14.2505 21.4384 14.3915C21.634 14.5324 21.75 14.7588 21.75 15V16C21.75 16.4142 21.4142 16.75 21 16.75C20.593 16.75 20.2618 16.4259 20.2503 16.0217C14.8661 17.6094 9.13389 17.6094 3.74969 16.0217C3.73823 16.4259 3.40697 16.75 3 16.75C2.58579 16.75 2.25 16.4142 2.25 16V15C2.25 14.7588 2.36596 14.5324 2.56162 14.3915Z" fill="#111827"/>
<path fill-rule="evenodd" clip-rule="evenodd" d="M20.7625 9.71139C15.0766 7.81287 8.92336 7.81287 3.23754 9.71139C2.84465 9.84258 2.4198 9.63043 2.28861 9.23754C2.15742 8.84465 2.36957 8.4198 2.76246 8.28861C8.75664 6.28713 15.2434 6.28713 21.2375 8.28861C21.6304 8.4198 21.8426 8.84465 21.7114 9.23754C21.5802 9.63043 21.1554 9.84258 20.7625 9.71139Z" fill="#111827"/>
</svg>
