<svg width="500" height="300" viewBox="0 0 500 300" fill="none" xmlns="http://www.w3.org/2000/svg">
<path fill-rule="evenodd" clip-rule="evenodd" d="M378.968 207.309C380.4 209.507 381.03 212.931 380.655 216.775C384.171 218.371 386.822 220.629 388.009 222.968C385.811 224.4 382.387 225.03 378.543 224.655C376.947 228.171 374.689 230.822 372.35 232.009C370.918 229.811 370.288 226.387 370.663 222.543C367.147 220.947 364.496 218.689 363.309 216.35C365.507 214.918 368.931 214.288 372.775 214.663C374.371 211.147 376.629 208.496 378.968 207.309ZM190.13 157.392C191.557 160.909 191.507 165.947 189.912 171.302C194.466 174.541 197.607 178.48 198.647 182.13C195.131 183.557 190.093 183.507 184.737 181.912C181.499 186.466 177.56 189.607 173.91 190.647C172.483 187.131 172.533 182.093 174.127 176.737C169.574 173.499 166.433 169.56 165.392 165.91C168.909 164.483 173.947 164.533 179.302 166.127C182.541 161.574 186.48 158.433 190.13 157.392ZM314.604 85.9127C317.186 86.6003 319.997 88.7629 322.333 91.9284C326.083 90.7403 329.628 90.643 332.121 91.6044C331.434 94.1863 329.271 96.9973 326.106 99.3329C327.294 103.083 327.391 106.628 326.43 109.121C323.848 108.434 321.037 106.271 318.701 103.106C314.951 104.294 311.406 104.391 308.913 103.43C309.6 100.848 311.763 98.0368 314.928 95.7012C313.74 91.951 313.643 88.4057 314.604 85.9127Z" fill="#D5EDF1"/>
<path fill-rule="evenodd" clip-rule="evenodd" d="M211.634 72.7632L302.481 167.113L295.167 173.933L208.32 77.5832L211.634 72.7632Z" fill="white" stroke="#A3BFC6" stroke-width="3" stroke-linecap="round"/>
<path fill-rule="evenodd" clip-rule="evenodd" d="M159.322 112.391C155.283 108.625 155.063 102.296 158.832 98.2549L165.297 91.3214C168.997 87.3541 175.164 87.0669 179.211 90.6234L179.433 90.8249C183.473 94.5915 183.693 100.92 179.924 104.961L173.459 111.895C169.759 115.862 163.592 116.149 159.545 112.593L159.322 112.391Z" fill="white" stroke="#A3BFC6" stroke-width="3" stroke-linecap="round"/>
<path fill-rule="evenodd" clip-rule="evenodd" d="M213.822 57.253L214.044 57.4545C218.083 61.2211 218.303 67.55 214.535 71.591L208.07 78.5245C207.436 79.2035 206.731 79.7748 205.976 80.2374C213.299 94.0412 211.397 111.656 200.012 123.865L199.33 123.466C196.346 121.691 183.958 114.016 170 101C153.956 86.039 145.161 72.7153 145.161 72.7153C157.715 59.2522 177.632 56.8347 192.558 65.9759C192.823 65.5977 193.118 65.2326 193.442 64.8845L199.908 57.951C203.608 53.9837 209.775 53.6965 213.822 57.253Z" fill="#EEFAFC" stroke="#A3BFC6" stroke-width="3" stroke-linecap="round"/>
<path d="M302 207.071L240.964 207.071C231.595 207.071 224 214.667 224 224.036V224.036C224 233.405 231.595 241 240.964 241H262" stroke="#A3BFC6" stroke-width="3" stroke-linecap="round"/>
<path d="M292.446 166.821H306.911C318.006 166.821 327 175.816 327 186.911V186.911C327 198.006 318.006 207 306.911 207H282" stroke="#A3BFC6" stroke-width="3" stroke-linecap="round"/>
<path fill-rule="evenodd" clip-rule="evenodd" d="M286 259C286 241.327 271.897 229 254.5 229C237.103 229 223 241.327 223 259C223 259 235.295 263 254.5 263C273.705 263 286 259 286 259Z" fill="white" stroke="#A3BFC6" stroke-width="3" stroke-linecap="round"/>
<path fill-rule="evenodd" clip-rule="evenodd" d="M296.443 171.789C297.694 172.595 298.115 174.228 297.408 175.537L264.035 237.366C262.735 239.776 259.701 240.636 257.33 239.267C254.959 237.898 254.186 234.841 255.623 232.51L292.476 172.69C293.313 171.332 295.102 170.926 296.443 171.789Z" fill="#EEFAFC" stroke="#A3BFC6" stroke-width="3" stroke-linecap="round"/>
<circle cx="295.5" cy="168.5" r="17.5" fill="#EEFAFC" stroke="#A3BFC6" stroke-width="3" stroke-linecap="round"/>
</svg>
