<svg width="500" height="300" viewBox="0 0 500 300" fill="none" xmlns="http://www.w3.org/2000/svg">
<path fill-rule="evenodd" clip-rule="evenodd" d="M343.506 186.814C346.088 187.502 348.899 189.664 351.234 192.83C354.985 191.642 358.53 191.544 361.023 192.506C360.335 195.088 358.173 197.899 355.007 200.234C356.195 203.985 356.293 207.53 355.331 210.023C352.749 209.335 349.938 207.173 347.603 204.007C343.852 205.195 340.307 205.293 337.814 204.331C338.502 201.749 340.664 198.938 343.83 196.603C342.642 192.852 342.544 189.307 343.506 186.814ZM145.968 122.309C147.4 124.507 148.03 127.931 147.655 131.775C151.171 133.371 153.822 135.629 155.009 137.968C152.811 139.4 149.387 140.03 145.543 139.655C143.947 143.171 141.689 145.822 139.35 147.009C137.918 144.811 137.288 141.387 137.663 137.543C134.147 135.947 131.496 133.689 130.309 131.35C132.507 129.918 135.931 129.288 139.775 129.663C141.371 126.147 143.629 123.496 145.968 122.309ZM166.848 44.8284C168.152 48.3929 167.926 53.4257 166.145 58.7225C170.583 62.1182 173.585 66.1642 174.497 69.8482C170.933 71.1518 165.9 70.9257 160.603 69.1454C157.208 73.5832 153.162 76.585 149.478 77.4975C148.174 73.9331 148.4 68.9002 150.181 63.6034C145.743 60.2078 142.741 56.1617 141.828 52.4777C145.393 51.1742 150.426 51.4002 155.722 53.1806C159.118 48.7427 163.164 45.7409 166.848 44.8284Z" fill="#D5EDF1"/>
<path fill-rule="evenodd" clip-rule="evenodd" d="M290 83C295.523 83 300 87.4772 300 93V217.5H288V107H213V217.5H200V93C200 87.4772 204.477 83 210 83H290Z" fill="#EEFAFC" stroke="#A3BFC6" stroke-width="3" stroke-linecap="round"/>
<path d="M259 94H241" stroke="#A3BFC6" stroke-width="3" stroke-linecap="round" stroke-dasharray="1 8 10"/>
<path d="M271 106.264C271 81.276 290.822 61 315.298 61C339.774 61 359.596 81.276 359.596 106.264C359.596 126.797 345.641 143.056 324.23 150.59L292.03 161.559C286.715 163.37 283.117 159.846 284.846 154.505L288.736 142.491C277.674 134.015 271 120.71 271 106.264Z" fill="white" stroke="#A3BFC6" stroke-width="3" stroke-linecap="round"/>
<path d="M327.859 103.516C327.611 103.114 327.176 102.87 326.707 102.862L316.986 102.693L317.252 87.4169C317.264 86.7615 316.816 86.1869 316.176 86.0396C315.526 85.8893 314.881 86.2142 314.604 86.8067L303.058 111.609C302.859 112.034 302.892 112.534 303.141 112.93C303.39 113.329 303.824 113.576 304.294 113.584L314.015 113.754L313.748 129.029C313.736 129.685 314.185 130.259 314.824 130.407C314.921 130.428 315.018 130.441 315.112 130.442C315.651 130.452 316.159 130.147 316.396 129.639L327.942 104.837C328.138 104.41 328.111 103.915 327.859 103.516Z" fill="#EEFAFC" stroke="#A3BFC6" stroke-width="3" stroke-linecap="round"/>
</svg>
