<svg width="25" height="24" viewBox="0 0 25 24" fill="none" xmlns="http://www.w3.org/2000/svg">
<path d="M18.3801 6.11961L4.42009 20.0796C3.99009 20.5096 3.27009 20.4696 2.92009 19.9796C2.42009 19.2896 2.32009 18.3296 2.84009 17.4996L5.60009 13.0696C5.97009 12.4796 5.97009 11.5196 5.60009 10.9296L2.84009 6.49961C1.91009 5.01961 2.98009 3.09961 4.72009 3.09961H16.1701C16.8501 3.09961 17.6901 3.56961 18.0501 4.13961L18.5201 4.87961C18.7601 5.27961 18.7101 5.78961 18.3801 6.11961Z" fill="#F1F3FC"/>
<path d="M22.1299 13.11L16.9499 20.01C16.5899 20.5 15.7899 20.9 15.1699 20.9H8.00987C7.11987 20.9 6.66987 19.82 7.29987 19.19L18.8199 7.67999C19.2699 7.22999 20.0399 7.30999 20.3799 7.85999L22.2299 10.83C22.6299 11.47 22.5899 12.5 22.1299 13.11Z" fill="#F1F3FC"/>
</svg>
