<svg width="24" height="24" viewBox="0 0 24 24" fill="none" xmlns="http://www.w3.org/2000/svg">
<path fill-rule="evenodd" clip-rule="evenodd" d="M5.05546 3.05546C5.57118 2.53973 6.27065 2.25 7 2.25H17C17.7293 2.25 18.4288 2.53973 18.9445 3.05546C19.4603 3.57118 19.75 4.27065 19.75 5V21C19.75 21.2674 19.6077 21.5145 19.3764 21.6487C19.1452 21.7829 18.86 21.7838 18.6279 21.6512L15.5 19.8638L12.3721 21.6512C12.1415 21.7829 11.8585 21.7829 11.6279 21.6512L8.5 19.8638L5.3721 21.6512C5.13998 21.7838 4.85479 21.7829 4.62355 21.6487C4.39232 21.5145 4.25 21.2674 4.25 21V5C4.25 4.27065 4.53973 3.57118 5.05546 3.05546ZM7 3.75C6.66848 3.75 6.35054 3.8817 6.11612 4.11612C5.8817 4.35054 5.75 4.66848 5.75 5V19.7076L8.1279 18.3488C8.35847 18.2171 8.64153 18.2171 8.8721 18.3488L12 20.1362L15.1279 18.3488C15.3585 18.2171 15.6415 18.2171 15.8721 18.3488L18.25 19.7076V5C18.25 4.66848 18.1183 4.35054 17.8839 4.11612C17.6495 3.8817 17.3315 3.75 17 3.75H7ZM8.61612 7.61612C8.85054 7.38169 9.16848 7.25 9.5 7.25C9.83152 7.25 10.1495 7.38169 10.3839 7.61612C10.6183 7.85054 10.75 8.16848 10.75 8.5C10.75 8.83152 10.6183 9.14946 10.3839 9.38388C10.1495 9.61831 9.83152 9.75 9.5 9.75C9.16848 9.75 8.85054 9.61831 8.61612 9.38388C8.38169 9.14946 8.25 8.83152 8.25 8.5C8.25 8.16848 8.38169 7.85054 8.61612 7.61612ZM15.5303 7.46967C15.8232 7.76256 15.8232 8.23744 15.5303 8.53033L9.53033 14.5303C9.23744 14.8232 8.76256 14.8232 8.46967 14.5303C8.17678 14.2374 8.17678 13.7626 8.46967 13.4697L14.4697 7.46967C14.7626 7.17678 15.2374 7.17678 15.5303 7.46967ZM13.6161 12.6161C13.8505 12.3817 14.1685 12.25 14.5 12.25C14.8315 12.25 15.1495 12.3817 15.3839 12.6161C15.6183 12.8505 15.75 13.1685 15.75 13.5C15.75 13.8315 15.6183 14.1495 15.3839 14.3839C15.1495 14.6183 14.8315 14.75 14.5 14.75C14.1685 14.75 13.8505 14.6183 13.6161 14.3839C13.3817 14.1495 13.25 13.8315 13.25 13.5C13.25 13.1685 13.3817 12.8505 13.6161 12.6161Z" fill="#111827"/>
</svg>
