<svg width="24" height="24" viewBox="0 0 24 24" fill="none" xmlns="http://www.w3.org/2000/svg">
<path d="M13.0004 11.25C12.9359 11.25 12.8753 11.2277 12.824 11.1764C12.7292 11.0817 12.7292 10.9183 12.824 10.8235L21.024 2.62354C21.1187 2.52881 21.2821 2.52881 21.3769 2.62354C21.4716 2.71828 21.4716 2.8817 21.3769 2.97644L13.1769 11.1764C13.1256 11.2277 13.065 11.25 13.0004 11.25Z" fill="#6B7280" stroke="#6B7280"/>
<path d="M21.7502 2.75V2.25H21.2502H17.2002C17.0663 2.25 16.9502 2.13386 16.9502 2C16.9502 1.86614 17.0663 1.75 17.2002 1.75H22.0002C22.1341 1.75 22.2502 1.86614 22.2502 2V6.8C22.2502 6.93386 22.1341 7.05 22.0002 7.05C21.8663 7.05 21.7502 6.93386 21.7502 6.8V2.75Z" fill="#6B7280" stroke="#6B7280"/>
<path d="M15 22.25H9C6.3424 22.25 4.56492 21.6803 3.4423 20.5577C2.31968 19.4351 1.75 17.6576 1.75 15V9C1.75 6.3424 2.31968 4.56492 3.4423 3.4423C4.56492 2.31968 6.3424 1.75 9 1.75H11C11.1339 1.75 11.25 1.86614 11.25 2C11.25 2.13386 11.1339 2.25 11 2.25H9C6.65972 2.25 4.92432 2.66107 3.7927 3.7927C2.66107 4.92432 2.25 6.65972 2.25 9V15C2.25 17.3403 2.66107 19.0757 3.7927 20.2073C4.92432 21.3389 6.65972 21.75 9 21.75H15C17.3403 21.75 19.0757 21.3389 20.2073 20.2073C21.3389 19.0757 21.75 17.3403 21.75 15V13C21.75 12.8661 21.8661 12.75 22 12.75C22.1339 12.75 22.25 12.8661 22.25 13V15C22.25 17.6576 21.6803 19.4351 20.5577 20.5577C19.4351 21.6803 17.6576 22.25 15 22.25Z" fill="#6B7280" stroke="#6B7280"/>
</svg>
