<svg width="47" height="46" viewBox="0 0 47 46" fill="none" xmlns="http://www.w3.org/2000/svg">
<path d="M45.1971 22.3508C48.0122 19.583 46.4577 14.755 42.5686 14.1844L34.6716 13.0259C33.1283 12.7976 31.7943 11.8217 31.099 10.4065L27.5659 3.18164C25.8249 -0.373698 20.7995 -0.373698 19.0641 3.18164L15.5311 10.4065C14.8414 11.8217 13.5073 12.7976 11.9585 13.0259L4.06146 14.1844C0.172306 14.755 -1.38222 19.5773 1.43289 22.3508L7.1479 27.9777C8.26716 29.0791 8.77592 30.6599 8.51023 32.2122L7.15921 40.156C6.95571 41.3545 7.19878 42.4616 7.73014 43.3747L11.4554 38.3641C11.591 38.1472 11.6984 37.9133 11.8228 37.6907C11.9132 37.5252 12.0093 37.3597 12.0941 37.1885C12.1789 37.0173 12.2581 36.8404 12.3429 36.6635C12.405 36.5265 12.4729 36.3895 12.5294 36.2469C12.6312 35.9901 12.7442 35.739 12.829 35.4764C12.9703 35.0484 13.0495 34.609 12.9986 34.1525C12.9647 33.8158 12.8516 33.5076 12.7329 33.1994C12.3315 32.1608 12.1394 31.0822 12.1846 29.9637C12.2072 29.4501 12.292 28.9422 12.4616 28.4571C12.4785 28.4057 12.5011 28.3601 12.5181 28.3144C12.9873 27.0589 15.3106 24.1142 15.3106 24.1142C15.3558 24.0571 15.401 23.9944 15.4463 23.9316C15.6385 23.6748 15.842 23.418 16.0398 23.1612C16.2603 22.8758 16.4751 22.5848 16.6899 22.2994C16.8199 22.1225 16.9443 21.9456 17.0799 21.7744C17.2326 21.5804 17.3852 21.3978 17.5378 21.2094C17.6452 21.0725 17.747 20.9355 17.86 20.7985C17.9731 20.6559 18.0861 20.5189 18.1935 20.3819C18.2614 20.2963 18.3292 20.1993 18.397 20.1137C18.5836 19.8797 18.7701 19.6515 18.9567 19.4175C19.0189 19.3376 19.081 19.252 19.1432 19.1721C19.3015 18.9781 19.4598 18.784 19.6124 18.5843C19.6859 18.493 19.7537 18.3903 19.8272 18.299C20.0138 18.0536 20.2059 17.8139 20.3981 17.5685C20.5621 17.3573 20.7204 17.1405 20.8843 16.9293C21.0539 16.7125 21.2235 16.5013 21.393 16.2845C21.4835 16.1703 21.5683 16.0448 21.6531 15.9249C21.8114 15.7081 21.9583 15.4912 22.1223 15.2801C22.3031 15.0404 22.4897 14.8007 22.6932 14.5838C23.0098 14.2528 23.4055 14.2186 23.8068 14.3727C24.1629 14.5096 24.4343 14.7493 24.5191 15.1545C24.5643 15.3771 24.5191 15.5825 24.4003 15.7709C24.2703 15.9763 24.129 16.176 23.9877 16.3758C23.8351 16.5926 23.6768 16.8095 23.5242 17.0264C23.4168 17.1804 23.3094 17.3345 23.2019 17.4886C22.8967 17.9337 22.5914 18.3846 22.2862 18.8297C22.111 19.0865 21.9244 19.3376 21.7492 19.5944C21.6192 19.777 21.4948 19.9596 21.3704 20.1423C21.0765 20.5817 20.7882 21.0268 20.4886 21.4662C20.2229 21.8543 19.9403 22.2367 19.6746 22.6247C19.5107 22.853 19.358 23.0927 19.1997 23.321C18.9567 23.6748 18.7079 24.0286 18.4649 24.3881C18.3801 24.5137 18.2953 24.6335 18.2048 24.7591C18.0126 25.0273 17.8205 25.3012 17.6283 25.5694C17.4982 25.7521 17.3626 25.929 17.2552 26.123C17.1704 26.2714 17.1252 26.4426 17.063 26.6024C17.0573 26.6823 17.0517 26.7679 17.0404 26.8478C17.046 27.1046 17.1365 27.35 17.2947 27.5611C17.2947 27.5668 17.306 27.5725 17.3117 27.5782C17.3173 27.5896 17.323 27.5954 17.3287 27.6068C17.4021 27.6981 17.4926 27.778 17.5943 27.8407C18.1144 28.1832 18.7927 28.069 19.1828 27.6068C19.1884 27.5954 19.1941 27.5839 19.1997 27.5725C19.2789 27.4356 19.375 27.3043 19.4598 27.1673C20.2059 26.0032 20.9578 24.839 21.7039 23.6805C23.0437 21.6032 24.3834 19.5259 25.7231 17.4487C25.8475 17.2603 25.9605 17.0606 26.1075 16.8894C26.3336 16.6269 26.6389 16.507 26.978 16.5584C27.4303 16.6269 27.7694 16.878 27.9221 17.3288C28.0238 17.6199 27.9729 17.9052 27.809 18.1677C27.532 18.6071 27.2494 19.0466 26.9667 19.4803C24.9713 22.5734 22.9815 25.6722 20.9804 28.7652C20.8334 28.9878 20.7995 29.2104 20.8617 29.4558C20.9634 29.8381 21.1387 30.1634 21.4891 30.3803C21.9414 30.6542 22.4162 30.6485 22.8628 30.2433C23.1228 30.0093 23.2924 29.7069 23.4507 29.4044C23.462 29.3816 23.4789 29.3588 23.4959 29.3359C23.6429 29.0962 23.7898 28.8566 23.9368 28.6169C24.0894 28.3601 24.2364 28.1033 24.389 27.8465C24.5078 27.6467 24.6265 27.4527 24.7452 27.2529C24.9374 26.9277 25.1352 26.5967 25.3274 26.2714C25.5253 25.9347 25.7288 25.598 25.9266 25.267C26.0566 25.0501 26.1866 24.8333 26.3223 24.6164C26.571 24.2169 26.8198 23.8232 27.0628 23.4237C27.1985 23.2068 27.3285 22.9843 27.4585 22.7617C27.6281 22.4763 27.7977 22.191 27.9673 21.9057C28.0295 21.7972 28.0917 21.6888 28.1538 21.5804L29.047 20.0452C29.047 20.0452 29.047 20.0452 29.047 20.0395C29.1148 19.9254 29.1826 19.8113 29.2448 19.7028L29.4822 19.292C29.4822 19.292 29.5105 19.2463 29.5218 19.2178C29.8214 18.7898 30.3867 18.6756 30.8276 18.9552C31.1838 19.1835 31.3873 19.486 31.4155 19.914C31.4268 20.108 31.359 20.2792 31.2742 20.439C31.1555 20.6787 31.0085 20.907 30.8728 21.141L30.0362 22.6989C30.0193 22.7389 30.008 22.7731 29.9853 22.813C29.9684 22.8416 29.9514 22.8701 29.9345 22.8929L29.0979 24.468C29.0018 24.6563 28.9057 24.8447 28.8096 25.0273C28.7248 25.1871 28.6343 25.3469 28.5495 25.5124C28.4591 25.6893 28.3743 25.8605 28.2838 26.0374C28.216 26.1686 28.1482 26.2999 28.086 26.4255C27.956 26.688 27.826 26.9562 27.6903 27.2187C27.6168 27.3557 27.5264 27.4869 27.4529 27.6296C27.3342 27.8522 27.2324 28.0804 27.1137 28.303C27.0346 28.4571 26.9441 28.6055 26.865 28.7595C26.7463 28.9878 26.6389 29.2218 26.5145 29.4501C26.3958 29.6783 26.2601 29.8952 26.1358 30.1178C26.0001 30.3517 25.8644 30.5857 25.7344 30.8197C25.6779 30.9224 25.6157 31.0251 25.5592 31.1336C25.4122 31.4018 25.2652 31.6643 25.1183 31.9325C24.9374 32.2521 24.7678 32.5717 24.5756 32.8856C24.2138 33.4734 23.8351 34.0612 23.462 34.6433C23.3433 34.8259 23.2246 35.0199 23.0776 35.174C22.7271 35.5335 22.3484 35.8531 21.9074 36.0928C20.8391 36.6749 19.6972 36.983 18.4875 37.0116C17.6 37.0287 16.8821 37.3882 16.2546 37.9817C16.0624 38.1701 15.8759 38.3698 15.7006 38.5752C15.5141 38.7864 15.3332 39.009 15.158 39.2315C15.0788 39.3342 15.0053 39.4427 14.9262 39.5454C14.8018 39.7109 14.6718 39.8707 14.5475 40.0362C14.4966 40.1047 14.4457 40.1674 14.3948 40.2359C14.3892 40.2416 14.3835 40.253 14.3779 40.2588L12.3089 43.854C12.2241 44.0081 12.145 44.1622 12.0602 44.3163C11.9811 44.4647 11.8906 44.6016 11.8058 44.75C11.6419 45.041 11.478 45.3378 11.3084 45.6346C11.3084 45.6346 11.2971 45.6289 11.2914 45.6231L11.2292 45.7259C12.1394 45.8457 13.106 45.703 14.0331 45.2123L21.0991 41.4629C22.4784 40.7324 24.129 40.7324 25.514 41.4629L32.58 45.2123C36.0565 47.0613 40.1265 44.0766 39.4595 40.1674L38.1085 32.2236C37.8428 30.6713 38.3572 29.0848 39.4708 27.9891L45.1858 22.3622L45.1971 22.3508Z" fill="#FF3008"/>
</svg>
