<svg width="18" height="22" viewBox="0 0 18 22" fill="none"
    xmlns="http://www.w3.org/2000/svg">
    <path d="M17.1144 8.55721C17.1144 13.2832 14.0338 17.906 8.55721 21.5C3.59403 18.2483 0 13.2832 0 8.55721C0 3.8312 3.8312 0 8.55721 0C13.2832 0 17.1144 3.8312 17.1144 8.55721Z" fill="#FF3008" fill-opacity="0.8"/>
    <g clip-path="url(#clip0_1654_16594)">
        <path d="M10.6667 10V6C9.06134 7.53133 8.99234 8.773 9 10H10.6667ZM10.6667 10V12H10.3333V11M6.66667 9V11M5.33334 6H8L7.66667 9H5.66667L5.33334 6ZM6.33334 11H7V12H6.33334V11Z" stroke="#F1F3FC" stroke-opacity="0.9" stroke-linecap="round" stroke-linejoin="round"/>
    </g>
    <defs>
        <clipPath id="clip0_1654_16594">
            <rect width="8" height="8" fill="white" transform="translate(4 5)"/>
        </clipPath>
    </defs>
</svg>
