<svg width="24" height="24" viewBox="0 0 24 24" fill="none" xmlns="http://www.w3.org/2000/svg">
<path fill-rule="evenodd" clip-rule="evenodd" d="M12.713 1.30711C12.9932 1.19103 13.3158 1.25519 13.5303 1.46969L22.5303 10.4697C22.6736 10.613 22.7528 10.8081 22.7499 11.0107C22.747 11.2133 22.6623 11.4062 22.515 11.5453L13.515 20.0453C13.2973 20.2509 12.9781 20.3073 12.7031 20.1888C12.4281 20.0702 12.25 19.7995 12.25 19.5V14.7819C9.43259 15.0234 7.3626 16.6018 5.94177 18.2412C5.17145 19.13 4.60619 20.022 4.23374 20.6924C4.04797 21.0268 3.91137 21.3039 3.82222 21.4949C3.77766 21.5904 3.74504 21.6642 3.72412 21.7127C3.71367 21.737 3.70614 21.7549 3.70152 21.766L3.69677 21.7776L3.69636 21.7786C3.56269 22.1121 3.21105 22.3044 2.85817 22.2365C2.50513 22.1685 2.25 21.8595 2.25 21.5C2.25 17.2043 2.8764 13.5281 4.55609 10.9078C6.16628 8.39588 8.68439 6.9445 12.25 6.76823V2.00002C12.25 1.69668 12.4327 1.4232 12.713 1.30711ZM3.87575 18.4494C4.14864 18.0641 4.45904 17.6617 4.80823 17.2588C6.51417 15.2904 9.20347 13.25 13 13.25C13.4142 13.25 13.75 13.5858 13.75 14V17.7601L20.924 10.9847L13.75 3.81068V7.50002C13.75 7.91424 13.4142 8.25002 13 8.25002C9.46522 8.25002 7.22306 9.52679 5.81891 11.7173C4.74334 13.3952 4.12284 15.6651 3.87575 18.4494Z" fill="#111827"/>
</svg>
