<svg width="24" height="24" viewBox="0 0 24 24" fill="none" xmlns="http://www.w3.org/2000/svg">
<path fill-rule="evenodd" clip-rule="evenodd" d="M12.1641 1.27161C12.5035 1.35072 12.7437 1.65319 12.7438 2.00169L12.7508 17.7497C12.751 18.0284 12.5965 18.2842 12.3499 18.4139L6.17786 21.6589C5.92516 21.7917 5.61896 21.7696 5.38799 21.6018C5.15703 21.434 5.04136 21.1496 5.08963 20.8682L6.20191 14.3842L1.4847 9.79246C1.28003 9.59323 1.20629 9.29504 1.2945 9.02338C1.38272 8.75172 1.61759 8.55375 1.90026 8.51278L8.40986 7.56936L11.3213 1.67011C11.4755 1.35759 11.8247 1.19249 12.1641 1.27161ZM11.2453 5.2135L9.58039 8.58695C9.4711 8.8084 9.2598 8.96185 9.01541 8.99727L3.62139 9.77901L7.53097 13.5846C7.70799 13.7569 7.7888 14.0053 7.74704 14.2488L6.82499 19.6239L11.2506 17.2971L11.2453 5.2135Z" fill="#111827"/>
</svg>
