<svg width="500" height="300" viewBox="0 0 500 300" fill="none" xmlns="http://www.w3.org/2000/svg">
<path fill-rule="evenodd" clip-rule="evenodd" d="M343.506 186.814C346.088 187.502 348.899 189.664 351.234 192.83C354.985 191.642 358.53 191.544 361.023 192.506C360.335 195.088 358.173 197.899 355.007 200.234C356.195 203.985 356.293 207.53 355.331 210.023C352.749 209.335 349.938 207.173 347.603 204.007C343.852 205.195 340.307 205.293 337.814 204.331C338.502 201.749 340.664 198.938 343.83 196.603C342.642 192.852 342.544 189.307 343.506 186.814ZM118.968 153.309C120.4 155.507 121.03 158.931 120.655 162.775C124.171 164.371 126.822 166.629 128.009 168.968C125.811 170.4 122.387 171.03 118.543 170.655C116.947 174.171 114.689 176.822 112.35 178.009C110.918 175.811 110.288 172.387 110.663 168.543C107.147 166.947 104.496 164.689 103.309 162.35C105.507 160.918 108.931 160.288 112.775 160.663C114.371 157.147 116.629 154.496 118.968 153.309ZM304.705 18.6852C306.008 22.2496 305.782 27.2825 304.002 32.5793C308.44 35.9749 311.442 40.021 312.354 43.705C308.79 45.0085 303.757 44.7825 298.46 43.0021C295.064 47.44 291.018 50.4418 287.334 51.3543C286.031 47.7898 286.257 42.757 288.037 37.4602C283.599 34.0645 280.598 30.0185 279.685 26.3345C283.25 25.031 288.282 25.257 293.579 27.0373C296.975 22.5995 301.021 19.5977 304.705 18.6852Z" fill="#D5EDF1"/>
<path fill-rule="evenodd" clip-rule="evenodd" d="M179.778 81.2434C190.192 78.7888 199.923 76.7638 208.971 75.1683C219.38 73.333 230.01 71.8678 240.861 70.7726C243.721 70.484 246.589 71.2313 248.944 72.8784L292.423 103.287C294.691 104.874 296.342 107.197 297.094 109.861L297.401 110.963C300.018 120.464 302.776 133.385 305.676 149.728L306.274 153.133C308.653 166.848 310.382 178.744 311.46 188.821L311.553 189.706C312.157 195.499 308.513 200.89 302.912 202.489C288.981 206.466 272.541 210.143 253.594 213.52L252.203 213.767C233.546 217.056 217.714 219.138 204.707 220.011L203.862 220.066C198.162 220.429 192.996 216.724 191.512 211.209C186.741 193.479 182.289 172.892 178.155 149.448L177.725 146.994C174.122 126.265 171.757 108.824 170.631 94.6712L170.566 93.8425C170.121 88.0485 173.889 82.7845 179.482 81.3171L179.778 81.2434Z" fill="#EEFAFC" stroke="#A3BFC6" stroke-width="3" stroke-linecap="round"/>
<mask id="mask0_0_2179" style="mask-type:luminance" maskUnits="userSpaceOnUse" x="169" y="69" width="145" height="153">
<path fill-rule="evenodd" clip-rule="evenodd" d="M179.778 81.2434C190.192 78.7888 199.923 76.7638 208.971 75.1683C219.38 73.333 230.01 71.8678 240.861 70.7726C243.721 70.484 246.589 71.2313 248.944 72.8784L292.423 103.287C294.691 104.874 296.342 107.197 297.094 109.861L297.401 110.963C300.018 120.464 302.776 133.385 305.676 149.728L306.274 153.133C308.653 166.848 310.382 178.744 311.46 188.821L311.553 189.706C312.157 195.499 308.513 200.89 302.912 202.489C288.981 206.466 272.541 210.143 253.594 213.52L252.203 213.767C233.546 217.056 217.714 219.138 204.707 220.011L203.862 220.066C198.162 220.429 192.996 216.724 191.512 211.209C186.741 193.479 182.289 172.892 178.155 149.448L177.725 146.994C174.122 126.265 171.757 108.824 170.631 94.6712L170.566 93.8425C170.121 88.0485 173.889 82.7845 179.482 81.3171L179.778 81.2434Z" fill="white" stroke="white" stroke-width="3" stroke-linecap="round"/>
</mask>
<g mask="url(#mask0_0_2179)">
<path fill-rule="evenodd" clip-rule="evenodd" d="M245.944 70.2347L294.497 105.283L260.492 111.279C256.576 111.97 252.842 109.355 252.151 105.439L245.944 70.2347Z" fill="white" stroke="#A3BFC6" stroke-width="3" stroke-linecap="round"/>
<path fill-rule="evenodd" clip-rule="evenodd" d="M207.939 132.878C207.939 132.878 216.267 124.856 222.366 129.338C224.793 131.122 229.718 135.169 220.052 154.251C214.567 165.078 224.63 168.233 230.63 160.328C239.323 148.874 242.512 141.16 253.023 143.563C262.872 145.816 265.532 162.991 257.914 171.304C250.297 179.618 238.692 170.71 244.142 161.783C249.591 152.856 259.025 147.653 273.091 149.555" fill="#EEFAFC"/>
<path d="M207.939 132.878C207.939 132.878 216.267 124.856 222.366 129.338C224.793 131.122 229.718 135.169 220.052 154.251C214.567 165.078 224.63 168.233 230.63 160.328C239.323 148.874 242.512 141.16 253.023 143.563C262.872 145.816 265.532 162.991 257.914 171.304C250.297 179.618 238.692 170.71 244.142 161.783C249.591 152.856 259.025 147.653 273.091 149.555" stroke="#A3BFC6" stroke-width="3" stroke-linecap="round"/>
</g>
<path fill-rule="evenodd" clip-rule="evenodd" d="M343.158 128.34L339.778 133.726C328.881 151.026 319.414 165.432 311.377 176.944L310.887 177.646C301.824 190.589 292.245 203.17 282.151 215.391C279.642 218.428 276.718 221.097 273.466 223.32L262.287 230.958C260.646 232.08 258.406 231.658 257.284 230.017C256.7 229.162 256.512 228.097 256.769 227.094L260.123 213.979C261.099 210.161 262.608 206.5 264.604 203.103C272.643 189.426 281.19 176.122 290.244 163.191L291.733 161.074C300.483 148.689 311.751 133.665 325.538 116.003C329.065 111.486 335.51 110.521 340.205 113.808C344.899 117.095 346.197 123.482 343.158 128.34Z" fill="white" stroke="#A3BFC6" stroke-width="3" stroke-linecap="round"/>
</svg>
